<svg width="274" height="173" viewBox="0 0 274 173" fill="none" xmlns="http://www.w3.org/2000/svg">
<rect width="274" height="173" rx="16" fill="white"/>
<g filter="url(#filter0_d_1_369)">
<path d="M20 123.254C20.3008 123.379 20.8713 123.594 24.3564 120.875C28.7129 117.477 32.6733 115.098 37.0297 118.157C41.3861 121.215 44.1584 128.692 49.703 126.653C55.2475 124.614 57.2277 109.321 63.9604 107.282C70.6931 105.243 75.0495 117.137 79.802 110.68C84.5545 104.223 89.703 96.0674 93.2673 97.0869C96.1188 97.9025 98.9439 101.278 100 102.864" stroke="#4BA8A8" stroke-width="2"/>
</g>
<path d="M231.81 47.264C230.387 47.264 229.17 46.934 228.158 46.274C227.146 45.5993 226.361 44.668 225.804 43.48C225.261 42.2773 224.99 40.884 224.99 39.3C224.99 37.7307 225.261 36.3447 225.804 35.142C226.361 33.9393 227.146 33.008 228.158 32.348C229.17 31.6733 230.387 31.336 231.81 31.336C233.233 31.336 234.45 31.6733 235.462 32.348C236.474 33.008 237.251 33.9393 237.794 35.142C238.351 36.3447 238.63 37.7307 238.63 39.3C238.63 40.884 238.351 42.2773 237.794 43.48C237.251 44.668 236.474 45.5993 235.462 46.274C234.45 46.934 233.233 47.264 231.81 47.264ZM231.81 44.734C232.969 44.734 233.915 44.25 234.648 43.282C235.381 42.314 235.748 40.9867 235.748 39.3C235.748 37.6133 235.381 36.286 234.648 35.318C233.915 34.35 232.969 33.866 231.81 33.866C230.637 33.866 229.683 34.35 228.95 35.318C228.231 36.286 227.872 37.6133 227.872 39.3C227.872 40.9867 228.231 42.314 228.95 43.282C229.683 44.25 230.637 44.734 231.81 44.734ZM246.549 47.264C245.493 47.264 244.54 47.0807 243.689 46.714C242.838 46.3327 242.156 45.7973 241.643 45.108C241.144 44.4187 240.895 43.6193 240.895 42.71C240.895 41.7713 241.137 40.95 241.621 40.246C242.12 39.542 242.772 39.036 243.579 38.728C242.875 38.42 242.318 37.98 241.907 37.408C241.496 36.8213 241.291 36.1687 241.291 35.45C241.291 34.7167 241.489 34.042 241.885 33.426C242.281 32.7953 242.868 32.2893 243.645 31.908C244.437 31.5267 245.405 31.336 246.549 31.336C247.693 31.336 248.654 31.5267 249.431 31.908C250.208 32.2893 250.795 32.7953 251.191 33.426C251.587 34.042 251.785 34.7167 251.785 35.45C251.785 36.154 251.572 36.8067 251.147 37.408C250.736 37.9947 250.186 38.4347 249.497 38.728C250.318 39.036 250.971 39.542 251.455 40.246C251.939 40.95 252.181 41.7713 252.181 42.71C252.181 43.6193 251.932 44.4187 251.433 45.108C250.934 45.7973 250.252 46.3327 249.387 46.714C248.536 47.0807 247.59 47.264 246.549 47.264ZM246.549 37.892C247.312 37.892 247.913 37.694 248.353 37.298C248.793 36.902 249.013 36.396 249.013 35.78C249.013 35.1053 248.793 34.5773 248.353 34.196C247.928 33.8147 247.326 33.624 246.549 33.624C245.757 33.624 245.148 33.8147 244.723 34.196C244.298 34.5773 244.085 35.1053 244.085 35.78C244.085 36.4107 244.298 36.924 244.723 37.32C245.163 37.7013 245.772 37.892 246.549 37.892ZM246.549 44.91C247.488 44.91 248.199 44.6827 248.683 44.228C249.167 43.7587 249.409 43.172 249.409 42.468C249.409 41.6907 249.152 41.082 248.639 40.642C248.14 40.202 247.444 39.982 246.549 39.982C245.654 39.982 244.943 40.202 244.415 40.642C243.902 41.082 243.645 41.6907 243.645 42.468C243.645 43.172 243.887 43.7587 244.371 44.228C244.87 44.6827 245.596 44.91 246.549 44.91Z" fill="#1E1E1E"/>
<circle cx="37" cy="39" r="17" fill="#F3F7FD"/>
<path d="M45.8529 37.0977C45.7997 36.9436 45.7029 36.8081 45.5742 36.7079C45.4455 36.6076 45.2905 36.5469 45.128 36.533L40.3318 35.8334L38.1824 31.4755C38.1134 31.333 38.0056 31.2128 37.8714 31.1287C37.7373 31.0446 37.5821 31 37.4238 31C37.2654 31 37.1103 31.0446 36.9761 31.1287C36.8419 31.2128 36.7342 31.333 36.6652 31.4755L34.5157 35.8249L29.7195 36.533C29.5635 36.5552 29.4169 36.6206 29.2962 36.7219C29.1755 36.8232 29.0856 36.9564 29.0368 37.1062C28.9921 37.2526 28.988 37.4084 29.0252 37.5569C29.0623 37.7054 29.1392 37.841 29.2475 37.9491L32.7287 41.3207L31.8858 46.1085C31.8557 46.2665 31.8715 46.4299 31.9312 46.5792C31.991 46.7286 32.0922 46.8577 32.223 46.9514C32.3505 47.0425 32.5008 47.0963 32.6571 47.1068C32.8135 47.1172 32.9696 47.0838 33.1081 47.0104L37.4238 44.7598L41.7226 47.0188C41.8409 47.0856 41.9746 47.1204 42.1104 47.12C42.2889 47.1206 42.4631 47.0646 42.6077 46.9598C42.7385 46.8662 42.8397 46.737 42.8995 46.5877C42.9592 46.4383 42.975 46.275 42.9449 46.1169L42.102 41.3292L45.5832 37.9575C45.7049 37.8544 45.7948 37.7189 45.8426 37.5667C45.8903 37.4145 45.8939 37.2519 45.8529 37.0977ZM40.669 40.4694C40.5701 40.565 40.4962 40.6834 40.4536 40.8141C40.411 40.9449 40.401 41.0841 40.4246 41.2196L41.0315 44.7514L37.8621 43.0656C37.7401 43.0006 37.6041 42.9667 37.4659 42.9667C37.3278 42.9667 37.1917 43.0006 37.0698 43.0656L33.9004 44.7514L34.5073 41.2196C34.5308 41.0841 34.5209 40.9449 34.4783 40.8141C34.4357 40.6834 34.3617 40.565 34.2628 40.4694L31.7341 37.9407L35.2828 37.4265C35.4193 37.4075 35.5491 37.3553 35.6608 37.2745C35.7725 37.1936 35.8627 37.0866 35.9234 36.9629L37.4238 33.7514L39.0085 36.9713C39.0692 37.0951 39.1593 37.2021 39.271 37.2829C39.3827 37.3637 39.5125 37.4159 39.6491 37.4349L43.1977 37.9491L40.669 40.4694Z" fill="#8D98A9"/>
<path d="M69.76 45V35.176H66.448V33.8H74.752V35.176H71.456V45H69.76ZM77.6975 45.192C77.0255 45.192 76.4708 45.08 76.0335 44.856C75.5962 44.632 75.2708 44.3387 75.0575 43.976C74.8442 43.6027 74.7375 43.1973 74.7375 42.76C74.7375 41.992 75.0362 41.384 75.6335 40.936C76.2308 40.488 77.0842 40.264 78.1935 40.264H80.2735V40.12C80.2735 39.5013 80.1028 39.0373 79.7615 38.728C79.4308 38.4187 78.9988 38.264 78.4655 38.264C77.9962 38.264 77.5855 38.3813 77.2335 38.616C76.8922 38.84 76.6842 39.176 76.6095 39.624H74.9135C74.9668 39.048 75.1588 38.5573 75.4895 38.152C75.8308 37.736 76.2575 37.4213 76.7695 37.208C77.2922 36.984 77.8628 36.872 78.4815 36.872C79.5908 36.872 80.4495 37.1653 81.0575 37.752C81.6655 38.328 81.9695 39.1173 81.9695 40.12V45H80.4975L80.3535 43.64C80.1295 44.0773 79.8042 44.4453 79.3775 44.744C78.9508 45.0427 78.3908 45.192 77.6975 45.192ZM78.0335 43.816C78.4922 43.816 78.8762 43.7093 79.1855 43.496C79.5055 43.272 79.7508 42.9787 79.9215 42.616C80.1028 42.2533 80.2148 41.8533 80.2575 41.416H78.3695C77.6975 41.416 77.2175 41.5333 76.9295 41.768C76.6522 42.0027 76.5135 42.296 76.5135 42.648C76.5135 43.0107 76.6468 43.2987 76.9135 43.512C77.1908 43.7147 77.5642 43.816 78.0335 43.816ZM87.115 45.192C86.1123 45.192 85.2857 44.9467 84.635 44.456C83.9843 43.9653 83.611 43.3147 83.515 42.504H85.227C85.3123 42.8667 85.515 43.1813 85.835 43.448C86.155 43.704 86.5763 43.832 87.099 43.832C87.611 43.832 87.9843 43.7253 88.219 43.512C88.4537 43.2987 88.571 43.0533 88.571 42.776C88.571 42.3707 88.4057 42.0987 88.075 41.96C87.755 41.8107 87.307 41.6773 86.731 41.56C86.283 41.464 85.835 41.336 85.387 41.176C84.9497 41.016 84.5817 40.792 84.283 40.504C83.995 40.2053 83.851 39.8053 83.851 39.304C83.851 38.6107 84.1177 38.0347 84.651 37.576C85.1843 37.1067 85.931 36.872 86.891 36.872C87.7763 36.872 88.491 37.0853 89.035 37.512C89.5897 37.9387 89.915 38.5413 90.011 39.32H88.379C88.3257 38.9787 88.1657 38.712 87.899 38.52C87.643 38.328 87.2963 38.232 86.859 38.232C86.4323 38.232 86.1017 38.3227 85.867 38.504C85.6323 38.6747 85.515 38.8987 85.515 39.176C85.515 39.4533 85.675 39.672 85.995 39.832C86.3257 39.992 86.7577 40.136 87.291 40.264C87.8243 40.3813 88.315 40.52 88.763 40.68C89.2217 40.8293 89.5897 41.0533 89.867 41.352C90.1443 41.6507 90.283 42.088 90.283 42.664C90.2937 43.3893 90.011 43.992 89.435 44.472C88.8697 44.952 88.0963 45.192 87.115 45.192ZM92.1345 45V33.48H93.8305V40.344L96.8705 37.064H98.9025L95.5265 40.664L99.3985 45H97.2545L93.8305 40.936V45H92.1345ZM109.8 45.192C108.691 45.192 107.731 44.952 106.92 44.472C106.12 43.9813 105.501 43.304 105.064 42.44C104.627 41.5653 104.408 40.5573 104.408 39.416C104.408 38.264 104.627 37.256 105.064 36.392C105.501 35.5173 106.12 34.8347 106.92 34.344C107.731 33.8533 108.691 33.608 109.8 33.608C111.112 33.608 112.184 33.928 113.016 34.568C113.848 35.208 114.376 36.104 114.6 37.256H112.712C112.563 36.6053 112.243 36.088 111.752 35.704C111.261 35.32 110.605 35.128 109.784 35.128C108.664 35.128 107.779 35.512 107.128 36.28C106.477 37.0373 106.152 38.0827 106.152 39.416C106.152 40.7387 106.477 41.7787 107.128 42.536C107.779 43.2933 108.664 43.672 109.784 43.672C110.605 43.672 111.261 43.4907 111.752 43.128C112.243 42.7653 112.563 42.2693 112.712 41.64H114.6C114.376 42.7493 113.848 43.6187 113.016 44.248C112.184 44.8773 111.112 45.192 109.8 45.192ZM120.112 45.192C119.355 45.192 118.672 45.0213 118.064 44.68C117.467 44.328 116.992 43.8427 116.64 43.224C116.288 42.5947 116.112 41.864 116.112 41.032C116.112 40.2 116.288 39.4747 116.64 38.856C117.003 38.2267 117.488 37.7413 118.096 37.4C118.704 37.048 119.381 36.872 120.128 36.872C120.885 36.872 121.563 37.048 122.16 37.4C122.768 37.7413 123.248 38.2267 123.6 38.856C123.963 39.4747 124.144 40.2 124.144 41.032C124.144 41.864 123.963 42.5947 123.6 43.224C123.248 43.8427 122.768 44.328 122.16 44.68C121.552 45.0213 120.869 45.192 120.112 45.192ZM120.112 43.736C120.517 43.736 120.891 43.6347 121.232 43.432C121.584 43.2293 121.867 42.9307 122.08 42.536C122.293 42.1307 122.4 41.6293 122.4 41.032C122.4 40.4347 122.293 39.9387 122.08 39.544C121.877 39.1387 121.6 38.8347 121.248 38.632C120.907 38.4293 120.533 38.328 120.128 38.328C119.723 38.328 119.344 38.4293 118.992 38.632C118.651 38.8347 118.373 39.1387 118.16 39.544C117.947 39.9387 117.84 40.4347 117.84 41.032C117.84 41.6293 117.947 42.1307 118.16 42.536C118.373 42.9307 118.651 43.2293 118.992 43.432C119.333 43.6347 119.707 43.736 120.112 43.736ZM125.978 45V37.064H127.482L127.626 38.184C127.882 37.7787 128.218 37.4587 128.634 37.224C129.061 36.9893 129.552 36.872 130.106 36.872C131.365 36.872 132.24 37.368 132.73 38.36C133.018 37.9013 133.402 37.5387 133.882 37.272C134.373 37.0053 134.901 36.872 135.466 36.872C136.458 36.872 137.237 37.1707 137.802 37.768C138.368 38.3653 138.65 39.256 138.65 40.44V45H136.954V40.616C136.954 39.08 136.368 38.312 135.194 38.312C134.597 38.312 134.106 38.536 133.722 38.984C133.349 39.432 133.162 40.072 133.162 40.904V45H131.466V40.616C131.466 39.08 130.874 38.312 129.69 38.312C129.104 38.312 128.618 38.536 128.234 38.984C127.861 39.432 127.674 40.072 127.674 40.904V45H125.978ZM140.635 48.52V37.064H142.155L142.331 38.296C142.587 37.9227 142.939 37.592 143.387 37.304C143.835 37.016 144.411 36.872 145.115 36.872C145.883 36.872 146.56 37.0533 147.147 37.416C147.733 37.7787 148.192 38.2747 148.523 38.904C148.864 39.5333 149.035 40.248 149.035 41.048C149.035 41.848 148.864 42.5627 148.523 43.192C148.192 43.8107 147.733 44.3013 147.147 44.664C146.56 45.016 145.877 45.192 145.099 45.192C144.48 45.192 143.931 45.0693 143.451 44.824C142.981 44.5787 142.608 44.232 142.331 43.784V48.52H140.635ZM144.811 43.72C145.536 43.72 146.133 43.4747 146.603 42.984C147.072 42.4827 147.307 41.832 147.307 41.032C147.307 40.5093 147.2 40.0453 146.987 39.64C146.773 39.2347 146.48 38.92 146.107 38.696C145.733 38.4613 145.301 38.344 144.811 38.344C144.085 38.344 143.488 38.5947 143.019 39.096C142.56 39.5973 142.331 40.2427 142.331 41.032C142.331 41.832 142.56 42.4827 143.019 42.984C143.488 43.4747 144.085 43.72 144.811 43.72ZM150.869 45V33.48H152.565V45H150.869ZM158.425 45.192C157.646 45.192 156.953 45.0213 156.345 44.68C155.747 44.328 155.278 43.8427 154.937 43.224C154.595 42.6053 154.425 41.8853 154.425 41.064C154.425 40.232 154.59 39.5013 154.921 38.872C155.262 38.2427 155.731 37.752 156.329 37.4C156.937 37.048 157.641 36.872 158.441 36.872C159.219 36.872 159.897 37.048 160.473 37.4C161.049 37.7413 161.497 38.2 161.817 38.776C162.137 39.352 162.297 39.9867 162.297 40.68C162.297 40.7867 162.291 40.904 162.281 41.032C162.281 41.1493 162.275 41.2827 162.265 41.432H156.089C156.142 42.2 156.393 42.7867 156.841 43.192C157.299 43.5867 157.827 43.784 158.425 43.784C158.905 43.784 159.305 43.6773 159.625 43.464C159.955 43.24 160.201 42.9413 160.361 42.568H162.057C161.843 43.3147 161.417 43.9387 160.777 44.44C160.147 44.9413 159.363 45.192 158.425 45.192ZM158.425 38.264C157.859 38.264 157.358 38.4347 156.921 38.776C156.483 39.1067 156.217 39.608 156.121 40.28H160.601C160.569 39.6613 160.35 39.1707 159.945 38.808C159.539 38.4453 159.033 38.264 158.425 38.264ZM167.181 45C166.403 45 165.784 44.8133 165.325 44.44C164.867 44.056 164.637 43.3787 164.637 42.408V38.488H163.277V37.064H164.637L164.845 35.048H166.333V37.064H168.573V38.488H166.333V42.408C166.333 42.8453 166.424 43.1493 166.605 43.32C166.797 43.48 167.123 43.56 167.581 43.56H168.493V45H167.181ZM173.831 45.192C173.052 45.192 172.359 45.0213 171.751 44.68C171.154 44.328 170.684 43.8427 170.343 43.224C170.002 42.6053 169.831 41.8853 169.831 41.064C169.831 40.232 169.996 39.5013 170.327 38.872C170.668 38.2427 171.138 37.752 171.735 37.4C172.343 37.048 173.047 36.872 173.847 36.872C174.626 36.872 175.303 37.048 175.879 37.4C176.455 37.7413 176.903 38.2 177.223 38.776C177.543 39.352 177.703 39.9867 177.703 40.68C177.703 40.7867 177.698 40.904 177.687 41.032C177.687 41.1493 177.682 41.2827 177.671 41.432H171.495C171.548 42.2 171.799 42.7867 172.247 43.192C172.706 43.5867 173.234 43.784 173.831 43.784C174.311 43.784 174.711 43.6773 175.031 43.464C175.362 43.24 175.607 42.9413 175.767 42.568H177.463C177.25 43.3147 176.823 43.9387 176.183 44.44C175.554 44.9413 174.77 45.192 173.831 45.192ZM173.831 38.264C173.266 38.264 172.764 38.4347 172.327 38.776C171.89 39.1067 171.623 39.608 171.527 40.28H176.007C175.975 39.6613 175.756 39.1707 175.351 38.808C174.946 38.4453 174.439 38.264 173.831 38.264ZM183.079 45.192C182.311 45.192 181.633 45.0107 181.047 44.648C180.46 44.2853 180.001 43.7893 179.671 43.16C179.34 42.5307 179.175 41.816 179.175 41.016C179.175 40.216 179.34 39.5067 179.671 38.888C180.001 38.2587 180.46 37.768 181.047 37.416C181.644 37.0533 182.327 36.872 183.095 36.872C183.724 36.872 184.273 36.9947 184.743 37.24C185.223 37.4853 185.596 37.832 185.863 38.28V33.48H187.559V45H186.039L185.863 43.768C185.607 44.1413 185.255 44.472 184.807 44.76C184.359 45.048 183.783 45.192 183.079 45.192ZM183.383 43.72C184.108 43.72 184.7 43.4693 185.159 42.968C185.628 42.4667 185.863 41.8213 185.863 41.032C185.863 40.232 185.628 39.5867 185.159 39.096C184.7 38.5947 184.108 38.344 183.383 38.344C182.657 38.344 182.06 38.5947 181.591 39.096C181.121 39.5867 180.887 40.232 180.887 41.032C180.887 41.5547 180.993 42.0187 181.207 42.424C181.42 42.8293 181.713 43.1493 182.087 43.384C182.471 43.608 182.903 43.72 183.383 43.72Z" fill="#8C97A8"/>
<path d="M186.304 110V101.136L184.464 101.568V100L187.168 98.8H188.432V110H186.304ZM195.196 110.192C194.161 110.192 193.276 109.952 192.54 109.472C191.804 108.981 191.233 108.304 190.828 107.44C190.433 106.565 190.236 105.552 190.236 104.4C190.236 103.259 190.433 102.251 190.828 101.376C191.233 100.501 191.804 99.824 192.54 99.344C193.276 98.8533 194.161 98.608 195.196 98.608C196.23 98.608 197.116 98.8533 197.852 99.344C198.588 99.824 199.153 100.501 199.548 101.376C199.953 102.251 200.156 103.259 200.156 104.4C200.156 105.552 199.953 106.565 199.548 107.44C199.153 108.304 198.588 108.981 197.852 109.472C197.116 109.952 196.23 110.192 195.196 110.192ZM195.196 108.352C196.038 108.352 196.726 108 197.26 107.296C197.793 106.592 198.06 105.627 198.06 104.4C198.06 103.173 197.793 102.208 197.26 101.504C196.726 100.8 196.038 100.448 195.196 100.448C194.342 100.448 193.649 100.8 193.116 101.504C192.593 102.208 192.332 103.173 192.332 104.4C192.332 105.627 192.593 106.592 193.116 107.296C193.649 108 194.342 108.352 195.196 108.352ZM201.771 106.224V104.512H204.779V101.744H206.523V104.512H209.515V106.224H206.523V108.992H204.779V106.224H201.771Z" fill="#299702"/>
<path d="M215.525 110V102.064H217.029L217.173 103.184C217.429 102.779 217.765 102.459 218.181 102.224C218.608 101.989 219.098 101.872 219.653 101.872C220.912 101.872 221.786 102.368 222.277 103.36C222.565 102.901 222.949 102.539 223.429 102.272C223.92 102.005 224.448 101.872 225.013 101.872C226.005 101.872 226.784 102.171 227.349 102.768C227.914 103.365 228.197 104.256 228.197 105.44V110H226.501V105.616C226.501 104.08 225.914 103.312 224.741 103.312C224.144 103.312 223.653 103.536 223.269 103.984C222.896 104.432 222.709 105.072 222.709 105.904V110H221.013V105.616C221.013 104.08 220.421 103.312 219.237 103.312C218.65 103.312 218.165 103.536 217.781 103.984C217.408 104.432 217.221 105.072 217.221 105.904V110H215.525ZM233.893 110.192C233.136 110.192 232.453 110.021 231.845 109.68C231.248 109.328 230.773 108.843 230.421 108.224C230.069 107.595 229.893 106.864 229.893 106.032C229.893 105.2 230.069 104.475 230.421 103.856C230.784 103.227 231.269 102.741 231.877 102.4C232.485 102.048 233.163 101.872 233.909 101.872C234.667 101.872 235.344 102.048 235.941 102.4C236.549 102.741 237.029 103.227 237.381 103.856C237.744 104.475 237.925 105.2 237.925 106.032C237.925 106.864 237.744 107.595 237.381 108.224C237.029 108.843 236.549 109.328 235.941 109.68C235.333 110.021 234.651 110.192 233.893 110.192ZM233.893 108.736C234.299 108.736 234.672 108.635 235.013 108.432C235.365 108.229 235.648 107.931 235.861 107.536C236.075 107.131 236.181 106.629 236.181 106.032C236.181 105.435 236.075 104.939 235.861 104.544C235.659 104.139 235.381 103.835 235.029 103.632C234.688 103.429 234.315 103.328 233.909 103.328C233.504 103.328 233.125 103.429 232.773 103.632C232.432 103.835 232.155 104.139 231.941 104.544C231.728 104.939 231.621 105.435 231.621 106.032C231.621 106.629 231.728 107.131 231.941 107.536C232.155 107.931 232.432 108.229 232.773 108.432C233.115 108.635 233.488 108.736 233.893 108.736ZM239.76 110V102.064H241.28L241.424 103.568C241.701 103.045 242.085 102.635 242.576 102.336C243.077 102.027 243.68 101.872 244.384 101.872V103.648H243.92C243.45 103.648 243.029 103.728 242.656 103.888C242.293 104.037 242 104.299 241.776 104.672C241.562 105.035 241.456 105.541 241.456 106.192V110H239.76ZM249.331 110.192C248.552 110.192 247.859 110.021 247.251 109.68C246.654 109.328 246.184 108.843 245.843 108.224C245.502 107.605 245.331 106.885 245.331 106.064C245.331 105.232 245.496 104.501 245.827 103.872C246.168 103.243 246.638 102.752 247.235 102.4C247.843 102.048 248.547 101.872 249.347 101.872C250.126 101.872 250.803 102.048 251.379 102.4C251.955 102.741 252.403 103.2 252.723 103.776C253.043 104.352 253.203 104.987 253.203 105.68C253.203 105.787 253.198 105.904 253.187 106.032C253.187 106.149 253.182 106.283 253.171 106.432H246.995C247.048 107.2 247.299 107.787 247.747 108.192C248.206 108.587 248.734 108.784 249.331 108.784C249.811 108.784 250.211 108.677 250.531 108.464C250.862 108.24 251.107 107.941 251.267 107.568H252.963C252.75 108.315 252.323 108.939 251.683 109.44C251.054 109.941 250.27 110.192 249.331 110.192ZM249.331 103.264C248.766 103.264 248.264 103.435 247.827 103.776C247.39 104.107 247.123 104.608 247.027 105.28H251.507C251.475 104.661 251.256 104.171 250.851 103.808C250.446 103.445 249.939 103.264 249.331 103.264Z" fill="#768396"/>
<path d="M144.472 135V128.488H143.336V127.064H144.472V125.912C144.472 125.048 144.685 124.429 145.112 124.056C145.549 123.672 146.163 123.48 146.952 123.48H147.784V124.92H147.208C146.835 124.92 146.568 125 146.408 125.16C146.248 125.309 146.168 125.565 146.168 125.928V127.064H147.992V128.488H146.168V135H144.472ZM149.603 135V127.064H151.123L151.267 128.568C151.545 128.045 151.929 127.635 152.419 127.336C152.921 127.027 153.523 126.872 154.227 126.872V128.648H153.763C153.294 128.648 152.873 128.728 152.499 128.888C152.137 129.037 151.843 129.299 151.619 129.672C151.406 130.035 151.299 130.541 151.299 131.192V135H149.603ZM159.175 135.192C158.417 135.192 157.735 135.021 157.127 134.68C156.529 134.328 156.055 133.843 155.703 133.224C155.351 132.595 155.175 131.864 155.175 131.032C155.175 130.2 155.351 129.475 155.703 128.856C156.065 128.227 156.551 127.741 157.159 127.4C157.767 127.048 158.444 126.872 159.191 126.872C159.948 126.872 160.625 127.048 161.223 127.4C161.831 127.741 162.311 128.227 162.663 128.856C163.025 129.475 163.207 130.2 163.207 131.032C163.207 131.864 163.025 132.595 162.663 133.224C162.311 133.843 161.831 134.328 161.223 134.68C160.615 135.021 159.932 135.192 159.175 135.192ZM159.175 133.736C159.58 133.736 159.953 133.635 160.295 133.432C160.647 133.229 160.929 132.931 161.143 132.536C161.356 132.131 161.463 131.629 161.463 131.032C161.463 130.435 161.356 129.939 161.143 129.544C160.94 129.139 160.663 128.835 160.311 128.632C159.969 128.429 159.596 128.328 159.191 128.328C158.785 128.328 158.407 128.429 158.055 128.632C157.713 128.835 157.436 129.139 157.223 129.544C157.009 129.939 156.903 130.435 156.903 131.032C156.903 131.629 157.009 132.131 157.223 132.536C157.436 132.931 157.713 133.229 158.055 133.432C158.396 133.635 158.769 133.736 159.175 133.736ZM165.041 135V127.064H166.545L166.689 128.184C166.945 127.779 167.281 127.459 167.697 127.224C168.123 126.989 168.614 126.872 169.169 126.872C170.427 126.872 171.302 127.368 171.793 128.36C172.081 127.901 172.465 127.539 172.945 127.272C173.435 127.005 173.963 126.872 174.529 126.872C175.521 126.872 176.299 127.171 176.865 127.768C177.43 128.365 177.713 129.256 177.713 130.44V135H176.017V130.616C176.017 129.08 175.43 128.312 174.257 128.312C173.659 128.312 173.169 128.536 172.785 128.984C172.411 129.432 172.225 130.072 172.225 130.904V135H170.529V130.616C170.529 129.08 169.937 128.312 168.753 128.312C168.166 128.312 167.681 128.536 167.297 128.984C166.923 129.432 166.737 130.072 166.737 130.904V135H165.041ZM183.728 135V123.48H185.424V135H183.728ZM190.26 135.192C189.588 135.192 189.033 135.08 188.596 134.856C188.159 134.632 187.833 134.339 187.62 133.976C187.407 133.603 187.3 133.197 187.3 132.76C187.3 131.992 187.599 131.384 188.196 130.936C188.793 130.488 189.647 130.264 190.756 130.264H192.836V130.12C192.836 129.501 192.665 129.037 192.324 128.728C191.993 128.419 191.561 128.264 191.028 128.264C190.559 128.264 190.148 128.381 189.796 128.616C189.455 128.84 189.247 129.176 189.172 129.624H187.476C187.529 129.048 187.721 128.557 188.052 128.152C188.393 127.736 188.82 127.421 189.332 127.208C189.855 126.984 190.425 126.872 191.044 126.872C192.153 126.872 193.012 127.165 193.62 127.752C194.228 128.328 194.532 129.117 194.532 130.12V135H193.06L192.916 133.64C192.692 134.077 192.367 134.445 191.94 134.744C191.513 135.043 190.953 135.192 190.26 135.192ZM190.596 133.816C191.055 133.816 191.439 133.709 191.748 133.496C192.068 133.272 192.313 132.979 192.484 132.616C192.665 132.253 192.777 131.853 192.82 131.416H190.932C190.26 131.416 189.78 131.533 189.492 131.768C189.215 132.003 189.076 132.296 189.076 132.648C189.076 133.011 189.209 133.299 189.476 133.512C189.753 133.715 190.127 133.816 190.596 133.816ZM199.678 135.192C198.675 135.192 197.848 134.947 197.198 134.456C196.547 133.965 196.174 133.315 196.078 132.504H197.789C197.875 132.867 198.078 133.181 198.398 133.448C198.718 133.704 199.139 133.832 199.661 133.832C200.174 133.832 200.547 133.725 200.782 133.512C201.016 133.299 201.134 133.053 201.134 132.776C201.134 132.371 200.968 132.099 200.638 131.96C200.318 131.811 199.87 131.677 199.294 131.56C198.846 131.464 198.398 131.336 197.95 131.176C197.512 131.016 197.144 130.792 196.846 130.504C196.558 130.205 196.414 129.805 196.414 129.304C196.414 128.611 196.68 128.035 197.214 127.576C197.747 127.107 198.494 126.872 199.454 126.872C200.339 126.872 201.054 127.085 201.598 127.512C202.152 127.939 202.478 128.541 202.574 129.32H200.942C200.888 128.979 200.728 128.712 200.462 128.52C200.206 128.328 199.859 128.232 199.422 128.232C198.995 128.232 198.664 128.323 198.43 128.504C198.195 128.675 198.078 128.899 198.078 129.176C198.078 129.453 198.238 129.672 198.558 129.832C198.888 129.992 199.32 130.136 199.854 130.264C200.387 130.381 200.878 130.52 201.326 130.68C201.784 130.829 202.152 131.053 202.43 131.352C202.707 131.651 202.846 132.088 202.846 132.664C202.856 133.389 202.574 133.992 201.998 134.472C201.432 134.952 200.659 135.192 199.678 135.192ZM207.728 135C206.949 135 206.331 134.813 205.872 134.44C205.413 134.056 205.184 133.379 205.184 132.408V128.488H203.824V127.064H205.184L205.392 125.048H206.88V127.064H209.12V128.488H206.88V132.408C206.88 132.845 206.971 133.149 207.152 133.32C207.344 133.48 207.669 133.56 208.128 133.56H209.04V135H207.728ZM216.484 135L214.148 127.064H215.844L217.38 133.048L219.108 127.064H220.996L222.724 133.048L224.26 127.064H225.956L223.62 135H221.876L220.052 128.76L218.228 135H216.484ZM230.768 135.192C229.99 135.192 229.296 135.021 228.688 134.68C228.091 134.328 227.622 133.843 227.28 133.224C226.939 132.605 226.768 131.885 226.768 131.064C226.768 130.232 226.934 129.501 227.264 128.872C227.606 128.243 228.075 127.752 228.672 127.4C229.28 127.048 229.984 126.872 230.784 126.872C231.563 126.872 232.24 127.048 232.816 127.4C233.392 127.741 233.84 128.2 234.16 128.776C234.48 129.352 234.64 129.987 234.64 130.68C234.64 130.787 234.635 130.904 234.624 131.032C234.624 131.149 234.619 131.283 234.608 131.432H228.432C228.486 132.2 228.736 132.787 229.184 133.192C229.643 133.587 230.171 133.784 230.768 133.784C231.248 133.784 231.648 133.677 231.968 133.464C232.299 133.24 232.544 132.941 232.704 132.568H234.4C234.187 133.315 233.76 133.939 233.12 134.44C232.491 134.941 231.707 135.192 230.768 135.192ZM230.768 128.264C230.203 128.264 229.702 128.435 229.264 128.776C228.827 129.107 228.56 129.608 228.464 130.28H232.944C232.912 129.661 232.694 129.171 232.288 128.808C231.883 128.445 231.376 128.264 230.768 128.264ZM240.112 135.192C239.333 135.192 238.64 135.021 238.032 134.68C237.435 134.328 236.965 133.843 236.624 133.224C236.283 132.605 236.112 131.885 236.112 131.064C236.112 130.232 236.277 129.501 236.608 128.872C236.949 128.243 237.419 127.752 238.016 127.4C238.624 127.048 239.328 126.872 240.128 126.872C240.907 126.872 241.584 127.048 242.16 127.4C242.736 127.741 243.184 128.2 243.504 128.776C243.824 129.352 243.984 129.987 243.984 130.68C243.984 130.787 243.979 130.904 243.968 131.032C243.968 131.149 243.963 131.283 243.952 131.432H237.776C237.829 132.2 238.08 132.787 238.528 133.192C238.987 133.587 239.515 133.784 240.112 133.784C240.592 133.784 240.992 133.677 241.312 133.464C241.643 133.24 241.888 132.941 242.048 132.568H243.744C243.531 133.315 243.104 133.939 242.464 134.44C241.835 134.941 241.051 135.192 240.112 135.192ZM240.112 128.264C239.547 128.264 239.045 128.435 238.608 128.776C238.171 129.107 237.904 129.608 237.808 130.28H242.288C242.256 129.661 242.037 129.171 241.632 128.808C241.227 128.445 240.72 128.264 240.112 128.264ZM245.744 135V123.48H247.44V130.344L250.48 127.064H252.512L249.136 130.664L253.008 135H250.864L247.44 130.936V135H245.744Z" fill="#768396"/>
<rect x="20" y="82" width="233" height="1" fill="#E8EDF1"/>
<defs>
<filter id="filter0_d_1_369" x="11.6165" y="94.9992" width="97.2158" height="48.0008" filterUnits="userSpaceOnUse" color-interpolation-filters="sRGB">
<feFlood flood-opacity="0" result="BackgroundImageFix"/>
<feColorMatrix in="SourceAlpha" type="matrix" values="0 0 0 0 0 0 0 0 0 0 0 0 0 0 0 0 0 0 127 0" result="hardAlpha"/>
<feOffset dy="7"/>
<feGaussianBlur stdDeviation="4"/>
<feComposite in2="hardAlpha" operator="out"/>
<feColorMatrix type="matrix" values="0 0 0 0 0.294118 0 0 0 0 0.658824 0 0 0 0 0.658824 0 0 0 0.4 0"/>
<feBlend mode="normal" in2="BackgroundImageFix" result="effect1_dropShadow_1_369"/>
<feBlend mode="normal" in="SourceGraphic" in2="effect1_dropShadow_1_369" result="shape"/>
</filter>
</defs>
</svg>
