<svg width="274" height="173" viewBox="0 0 274 173" fill="none" xmlns="http://www.w3.org/2000/svg">
<rect width="274" height="173" rx="16" fill="white"/>
<g filter="url(#filter0_d_1_391)">
<path d="M20 124.254C20.3008 124.379 20.8713 124.594 24.3564 121.875C28.7129 118.477 32.6733 116.098 37.0297 119.157C41.3861 122.215 44.1584 129.692 49.703 127.653C55.2475 125.614 57.2277 110.321 63.9604 108.282C70.6931 106.243 75.0495 118.137 79.802 111.68C84.5545 105.223 89.703 97.0674 93.2673 98.0869C96.1188 98.9025 98.9439 102.278 100 103.864" stroke="#FF614C" stroke-width="2"/>
</g>
<path d="M227.168 47V34.812L224.638 35.406V33.25L228.356 31.6H230.094V47H227.168ZM239.394 47.264C237.971 47.264 236.754 46.934 235.742 46.274C234.73 45.5993 233.945 44.668 233.388 43.48C232.845 42.2773 232.574 40.884 232.574 39.3C232.574 37.7307 232.845 36.3447 233.388 35.142C233.945 33.9393 234.73 33.008 235.742 32.348C236.754 31.6733 237.971 31.336 239.394 31.336C240.817 31.336 242.034 31.6733 243.046 32.348C244.058 33.008 244.835 33.9393 245.378 35.142C245.935 36.3447 246.214 37.7307 246.214 39.3C246.214 40.884 245.935 42.2773 245.378 43.48C244.835 44.668 244.058 45.5993 243.046 46.274C242.034 46.934 240.817 47.264 239.394 47.264ZM239.394 44.734C240.553 44.734 241.499 44.25 242.232 43.282C242.965 42.314 243.332 40.9867 243.332 39.3C243.332 37.6133 242.965 36.286 242.232 35.318C241.499 34.35 240.553 33.866 239.394 33.866C238.221 33.866 237.267 34.35 236.534 35.318C235.815 36.286 235.456 37.6133 235.456 39.3C235.456 40.9867 235.815 42.314 236.534 43.282C237.267 44.25 238.221 44.734 239.394 44.734Z" fill="#1E1E1E"/>
<circle cx="37" cy="39" r="17" fill="#F3F7FD"/>
<path d="M39.8 40.6H35C34.7878 40.6 34.5843 40.6843 34.4343 40.8343C34.2843 40.9843 34.2 41.1878 34.2 41.4C34.2 41.6122 34.2843 41.8157 34.4343 41.9657C34.5843 42.1157 34.7878 42.2 35 42.2H39.8C40.0122 42.2 40.2157 42.1157 40.3657 41.9657C40.5157 41.8157 40.6 41.6122 40.6 41.4C40.6 41.1878 40.5157 40.9843 40.3657 40.8343C40.2157 40.6843 40.0122 40.6 39.8 40.6ZM39.8 37.4H36.6C36.3878 37.4 36.1843 37.4843 36.0343 37.6343C35.8843 37.7843 35.8 37.9878 35.8 38.2C35.8 38.4122 35.8843 38.6157 36.0343 38.7657C36.1843 38.9157 36.3878 39 36.6 39H39.8C40.0122 39 40.2157 38.9157 40.3657 38.7657C40.5157 38.6157 40.6 38.4122 40.6 38.2C40.6 37.9878 40.5157 37.7843 40.3657 37.6343C40.2157 37.4843 40.0122 37.4 39.8 37.4ZM41.4 32.6H40.456C40.2909 32.1332 39.9855 31.7288 39.5817 31.4424C39.1778 31.1559 38.6952 31.0014 38.2 31H36.6C36.1048 31.0014 35.6222 31.1559 35.2183 31.4424C34.8145 31.7288 34.5091 32.1332 34.344 32.6H33.4C32.7635 32.6 32.153 32.8529 31.7029 33.3029C31.2529 33.753 31 34.3635 31 35V44.6C31 45.2365 31.2529 45.847 31.7029 46.2971C32.153 46.7471 32.7635 47 33.4 47H41.4C42.0365 47 42.647 46.7471 43.0971 46.2971C43.5471 45.847 43.8 45.2365 43.8 44.6V35C43.8 34.3635 43.5471 33.753 43.0971 33.3029C42.647 32.8529 42.0365 32.6 41.4 32.6ZM35.8 33.4C35.8 33.1878 35.8843 32.9843 36.0343 32.8343C36.1843 32.6843 36.3878 32.6 36.6 32.6H38.2C38.4122 32.6 38.6157 32.6843 38.7657 32.8343C38.9157 32.9843 39 33.1878 39 33.4V34.2H35.8V33.4ZM42.2 44.6C42.2 44.8122 42.1157 45.0157 41.9657 45.1657C41.8157 45.3157 41.6122 45.4 41.4 45.4H33.4C33.1878 45.4 32.9843 45.3157 32.8343 45.1657C32.6843 45.0157 32.6 44.8122 32.6 44.6V35C32.6 34.7878 32.6843 34.5843 32.8343 34.4343C32.9843 34.2843 33.1878 34.2 33.4 34.2H34.2V35C34.2 35.2122 34.2843 35.4157 34.4343 35.5657C34.5843 35.7157 34.7878 35.8 35 35.8H39.8C40.0122 35.8 40.2157 35.7157 40.3657 35.5657C40.5157 35.4157 40.6 35.2122 40.6 35V34.2H41.4C41.6122 34.2 41.8157 34.2843 41.9657 34.4343C42.1157 34.5843 42.2 34.7878 42.2 35V44.6Z" fill="#8D98A9"/>
<path d="M67.136 45V33.8H71.056C71.9307 33.8 72.656 33.9493 73.232 34.248C73.808 34.536 74.2347 34.936 74.512 35.448C74.8 35.9493 74.944 36.52 74.944 37.16C74.944 37.768 74.8053 38.328 74.528 38.84C74.2613 39.3413 73.84 39.7413 73.264 40.04C72.688 40.3387 71.952 40.488 71.056 40.488H68.832V45H67.136ZM68.832 39.096H70.976C71.776 39.096 72.3467 38.9253 72.688 38.584C73.04 38.232 73.216 37.7573 73.216 37.16C73.216 36.5413 73.04 36.0613 72.688 35.72C72.3467 35.368 71.776 35.192 70.976 35.192H68.832V39.096ZM76.5564 45V37.064H78.0764L78.2204 38.568C78.4977 38.0453 78.8817 37.6347 79.3724 37.336C79.8737 37.0267 80.4764 36.872 81.1804 36.872V38.648H80.7164C80.247 38.648 79.8257 38.728 79.4524 38.888C79.0897 39.0373 78.7964 39.2987 78.5724 39.672C78.359 40.0347 78.2524 40.5413 78.2524 41.192V45H76.5564ZM86.1278 45.192C85.3704 45.192 84.6878 45.0213 84.0798 44.68C83.4824 44.328 83.0078 43.8427 82.6558 43.224C82.3038 42.5947 82.1278 41.864 82.1278 41.032C82.1278 40.2 82.3038 39.4747 82.6558 38.856C83.0184 38.2267 83.5038 37.7413 84.1118 37.4C84.7198 37.048 85.3971 36.872 86.1438 36.872C86.9011 36.872 87.5784 37.048 88.1758 37.4C88.7838 37.7413 89.2638 38.2267 89.6158 38.856C89.9784 39.4747 90.1597 40.2 90.1597 41.032C90.1597 41.864 89.9784 42.5947 89.6158 43.224C89.2638 43.8427 88.7838 44.328 88.1758 44.68C87.5678 45.0213 86.8851 45.192 86.1278 45.192ZM86.1278 43.736C86.5331 43.736 86.9064 43.6347 87.2478 43.432C87.5998 43.2293 87.8824 42.9307 88.0958 42.536C88.3091 42.1307 88.4158 41.6293 88.4158 41.032C88.4158 40.4347 88.3091 39.9387 88.0958 39.544C87.8931 39.1387 87.6158 38.8347 87.2638 38.632C86.9224 38.4293 86.5491 38.328 86.1438 38.328C85.7384 38.328 85.3598 38.4293 85.0078 38.632C84.6664 38.8347 84.3891 39.1387 84.1758 39.544C83.9624 39.9387 83.8558 40.4347 83.8558 41.032C83.8558 41.6293 83.9624 42.1307 84.1758 42.536C84.3891 42.9307 84.6664 43.2293 85.0078 43.432C85.3491 43.6347 85.7224 43.736 86.1278 43.736ZM93.0019 35.56C92.6819 35.56 92.4152 35.464 92.2019 35.272C91.9992 35.0693 91.8979 34.8187 91.8979 34.52C91.8979 34.2213 91.9992 33.976 92.2019 33.784C92.4152 33.5813 92.6819 33.48 93.0019 33.48C93.3219 33.48 93.5832 33.5813 93.7859 33.784C93.9992 33.976 94.1059 34.2213 94.1059 34.52C94.1059 34.8187 93.9992 35.0693 93.7859 35.272C93.5832 35.464 93.3219 35.56 93.0019 35.56ZM90.4739 48.52V47.08H91.0979C91.4712 47.08 91.7379 47 91.8979 46.84C92.0579 46.6907 92.1379 46.4347 92.1379 46.072V37.064H93.8339V46.088C93.8339 46.952 93.6152 47.5707 93.1779 47.944C92.7405 48.328 92.1325 48.52 91.3539 48.52H90.4739ZM99.784 45.192C99.0053 45.192 98.312 45.0213 97.704 44.68C97.1067 44.328 96.6373 43.8427 96.296 43.224C95.9547 42.6053 95.784 41.8853 95.784 41.064C95.784 40.232 95.9493 39.5013 96.28 38.872C96.6213 38.2427 97.0907 37.752 97.688 37.4C98.296 37.048 99 36.872 99.8 36.872C100.579 36.872 101.256 37.048 101.832 37.4C102.408 37.7413 102.856 38.2 103.176 38.776C103.496 39.352 103.656 39.9867 103.656 40.68C103.656 40.7867 103.651 40.904 103.64 41.032C103.64 41.1493 103.635 41.2827 103.624 41.432H97.448C97.5013 42.2 97.752 42.7867 98.2 43.192C98.6587 43.5867 99.1867 43.784 99.784 43.784C100.264 43.784 100.664 43.6773 100.984 43.464C101.315 43.24 101.56 42.9413 101.72 42.568H103.416C103.203 43.3147 102.776 43.9387 102.136 44.44C101.507 44.9413 100.723 45.192 99.784 45.192ZM99.784 38.264C99.2187 38.264 98.7173 38.4347 98.28 38.776C97.8427 39.1067 97.576 39.608 97.48 40.28H101.96C101.928 39.6613 101.709 39.1707 101.304 38.808C100.899 38.4453 100.392 38.264 99.784 38.264ZM109.176 45.192C108.397 45.192 107.698 45.016 107.08 44.664C106.472 44.312 105.992 43.8267 105.64 43.208C105.298 42.5787 105.128 41.8533 105.128 41.032C105.128 40.2107 105.298 39.4907 105.64 38.872C105.992 38.2427 106.472 37.752 107.08 37.4C107.698 37.048 108.397 36.872 109.176 36.872C110.157 36.872 110.978 37.128 111.64 37.64C112.312 38.152 112.744 38.8453 112.936 39.72H111.16C111.053 39.2827 110.818 38.9413 110.456 38.696C110.093 38.4507 109.666 38.328 109.176 38.328C108.76 38.328 108.376 38.4347 108.024 38.648C107.672 38.8507 107.389 39.1547 107.176 39.56C106.962 39.9547 106.856 40.4453 106.856 41.032C106.856 41.6187 106.962 42.1147 107.176 42.52C107.389 42.9147 107.672 43.2187 108.024 43.432C108.376 43.6453 108.76 43.752 109.176 43.752C109.666 43.752 110.093 43.6293 110.456 43.384C110.818 43.1387 111.053 42.792 111.16 42.344H112.936C112.754 43.1973 112.328 43.8853 111.656 44.408C110.984 44.9307 110.157 45.192 109.176 45.192ZM117.947 45C117.168 45 116.55 44.8133 116.091 44.44C115.632 44.056 115.403 43.3787 115.403 42.408V38.488H114.043V37.064H115.403L115.611 35.048H117.099V37.064H119.339V38.488H117.099V42.408C117.099 42.8453 117.19 43.1493 117.371 43.32C117.563 43.48 117.888 43.56 118.347 43.56H119.259V45H117.947ZM125.183 45V33.8H128.815C130.127 33.8 131.204 34.0293 132.047 34.488C132.9 34.9467 133.53 35.5973 133.935 36.44C134.351 37.272 134.559 38.264 134.559 39.416C134.559 40.5573 134.351 41.5493 133.935 42.392C133.53 43.224 132.9 43.8693 132.047 44.328C131.204 44.776 130.127 45 128.815 45H125.183ZM126.879 43.56H128.751C129.764 43.56 130.564 43.3947 131.151 43.064C131.748 42.7333 132.175 42.2587 132.431 41.64C132.698 41.0213 132.831 40.28 132.831 39.416C132.831 38.552 132.698 37.8053 132.431 37.176C132.175 36.5467 131.748 36.0667 131.151 35.736C130.564 35.3947 129.764 35.224 128.751 35.224H126.879V43.56ZM140.081 45.192C139.324 45.192 138.641 45.0213 138.033 44.68C137.436 44.328 136.961 43.8427 136.609 43.224C136.257 42.5947 136.081 41.864 136.081 41.032C136.081 40.2 136.257 39.4747 136.609 38.856C136.972 38.2267 137.457 37.7413 138.065 37.4C138.673 37.048 139.35 36.872 140.097 36.872C140.854 36.872 141.532 37.048 142.129 37.4C142.737 37.7413 143.217 38.2267 143.569 38.856C143.932 39.4747 144.113 40.2 144.113 41.032C144.113 41.864 143.932 42.5947 143.569 43.224C143.217 43.8427 142.737 44.328 142.129 44.68C141.521 45.0213 140.838 45.192 140.081 45.192ZM140.081 43.736C140.486 43.736 140.86 43.6347 141.201 43.432C141.553 43.2293 141.836 42.9307 142.049 42.536C142.262 42.1307 142.369 41.6293 142.369 41.032C142.369 40.4347 142.262 39.9387 142.049 39.544C141.846 39.1387 141.569 38.8347 141.217 38.632C140.876 38.4293 140.502 38.328 140.097 38.328C139.692 38.328 139.313 38.4293 138.961 38.632C138.62 38.8347 138.342 39.1387 138.129 39.544C137.916 39.9387 137.809 40.4347 137.809 41.032C137.809 41.6293 137.916 42.1307 138.129 42.536C138.342 42.9307 138.62 43.2293 138.961 43.432C139.302 43.6347 139.676 43.736 140.081 43.736ZM145.947 45V37.064H147.451L147.579 38.456C147.824 37.9653 148.182 37.5813 148.651 37.304C149.131 37.016 149.68 36.872 150.299 36.872C151.259 36.872 152.011 37.1707 152.555 37.768C153.11 38.3653 153.387 39.256 153.387 40.44V45H151.707V40.616C151.707 39.08 151.078 38.312 149.819 38.312C149.19 38.312 148.667 38.536 148.251 38.984C147.846 39.432 147.643 40.072 147.643 40.904V45H145.947ZM159.097 45.192C158.318 45.192 157.625 45.0213 157.017 44.68C156.419 44.328 155.95 43.8427 155.609 43.224C155.267 42.6053 155.097 41.8853 155.097 41.064C155.097 40.232 155.262 39.5013 155.593 38.872C155.934 38.2427 156.403 37.752 157.001 37.4C157.609 37.048 158.313 36.872 159.113 36.872C159.891 36.872 160.569 37.048 161.145 37.4C161.721 37.7413 162.169 38.2 162.489 38.776C162.809 39.352 162.969 39.9867 162.969 40.68C162.969 40.7867 162.963 40.904 162.953 41.032C162.953 41.1493 162.947 41.2827 162.937 41.432H156.761C156.814 42.2 157.065 42.7867 157.513 43.192C157.971 43.5867 158.499 43.784 159.097 43.784C159.577 43.784 159.977 43.6773 160.297 43.464C160.627 43.24 160.873 42.9413 161.033 42.568H162.729C162.515 43.3147 162.089 43.9387 161.449 44.44C160.819 44.9413 160.035 45.192 159.097 45.192ZM159.097 38.264C158.531 38.264 158.03 38.4347 157.593 38.776C157.155 39.1067 156.889 39.608 156.793 40.28H161.273C161.241 39.6613 161.022 39.1707 160.617 38.808C160.211 38.4453 159.705 38.264 159.097 38.264Z" fill="#8C97A8"/>
<path d="M184.68 110.192C183.645 110.192 182.76 109.952 182.024 109.472C181.288 108.981 180.717 108.304 180.312 107.44C179.917 106.565 179.72 105.552 179.72 104.4C179.72 103.259 179.917 102.251 180.312 101.376C180.717 100.501 181.288 99.824 182.024 99.344C182.76 98.8533 183.645 98.608 184.68 98.608C185.715 98.608 186.6 98.8533 187.336 99.344C188.072 99.824 188.637 100.501 189.032 101.376C189.437 102.251 189.64 103.259 189.64 104.4C189.64 105.552 189.437 106.565 189.032 107.44C188.637 108.304 188.072 108.981 187.336 109.472C186.6 109.952 185.715 110.192 184.68 110.192ZM184.68 108.352C185.523 108.352 186.211 108 186.744 107.296C187.277 106.592 187.544 105.627 187.544 104.4C187.544 103.173 187.277 102.208 186.744 101.504C186.211 100.8 185.523 100.448 184.68 100.448C183.827 100.448 183.133 100.8 182.6 101.504C182.077 102.208 181.816 103.173 181.816 104.4C181.816 105.627 182.077 106.592 182.6 107.296C183.133 108 183.827 108.352 184.68 108.352ZM195.399 110.192C194.631 110.192 193.938 110.059 193.319 109.792C192.701 109.515 192.205 109.125 191.831 108.624C191.469 108.123 191.287 107.541 191.287 106.88C191.287 106.197 191.463 105.6 191.815 105.088C192.178 104.576 192.653 104.208 193.239 103.984C192.727 103.76 192.322 103.44 192.023 103.024C191.725 102.597 191.575 102.123 191.575 101.6C191.575 101.067 191.719 100.576 192.007 100.128C192.295 99.6693 192.722 99.3013 193.287 99.024C193.863 98.7467 194.567 98.608 195.399 98.608C196.231 98.608 196.93 98.7467 197.495 99.024C198.061 99.3013 198.487 99.6693 198.775 100.128C199.063 100.576 199.207 101.067 199.207 101.6C199.207 102.112 199.053 102.587 198.743 103.024C198.445 103.451 198.045 103.771 197.543 103.984C198.141 104.208 198.615 104.576 198.967 105.088C199.319 105.6 199.495 106.197 199.495 106.88C199.495 107.541 199.314 108.123 198.951 108.624C198.589 109.125 198.093 109.515 197.463 109.792C196.845 110.059 196.157 110.192 195.399 110.192ZM195.399 103.376C195.954 103.376 196.391 103.232 196.711 102.944C197.031 102.656 197.191 102.288 197.191 101.84C197.191 101.349 197.031 100.965 196.711 100.688C196.402 100.411 195.965 100.272 195.399 100.272C194.823 100.272 194.381 100.411 194.071 100.688C193.762 100.965 193.607 101.349 193.607 101.84C193.607 102.299 193.762 102.672 194.071 102.96C194.391 103.237 194.834 103.376 195.399 103.376ZM195.399 108.48C196.082 108.48 196.599 108.315 196.951 107.984C197.303 107.643 197.479 107.216 197.479 106.704C197.479 106.139 197.293 105.696 196.919 105.376C196.557 105.056 196.05 104.896 195.399 104.896C194.749 104.896 194.231 105.056 193.847 105.376C193.474 105.696 193.287 106.139 193.287 106.704C193.287 107.216 193.463 107.643 193.815 107.984C194.178 108.315 194.706 108.48 195.399 108.48ZM201.318 106.224V104.512H204.326V101.744H206.07V104.512H209.062V106.224H206.07V108.992H204.326V106.224H201.318Z" fill="#299702"/>
<path d="M215.072 110V102.064H216.576L216.72 103.184C216.976 102.779 217.312 102.459 217.728 102.224C218.155 101.989 218.645 101.872 219.2 101.872C220.459 101.872 221.333 102.368 221.824 103.36C222.112 102.901 222.496 102.539 222.976 102.272C223.467 102.005 223.995 101.872 224.56 101.872C225.552 101.872 226.331 102.171 226.896 102.768C227.461 103.365 227.744 104.256 227.744 105.44V110H226.048V105.616C226.048 104.08 225.461 103.312 224.288 103.312C223.691 103.312 223.2 103.536 222.816 103.984C222.443 104.432 222.256 105.072 222.256 105.904V110H220.56V105.616C220.56 104.08 219.968 103.312 218.784 103.312C218.197 103.312 217.712 103.536 217.328 103.984C216.955 104.432 216.768 105.072 216.768 105.904V110H215.072ZM233.44 110.192C232.683 110.192 232 110.021 231.392 109.68C230.795 109.328 230.32 108.843 229.968 108.224C229.616 107.595 229.44 106.864 229.44 106.032C229.44 105.2 229.616 104.475 229.968 103.856C230.331 103.227 230.816 102.741 231.424 102.4C232.032 102.048 232.71 101.872 233.456 101.872C234.214 101.872 234.891 102.048 235.488 102.4C236.096 102.741 236.576 103.227 236.928 103.856C237.291 104.475 237.472 105.2 237.472 106.032C237.472 106.864 237.291 107.595 236.928 108.224C236.576 108.843 236.096 109.328 235.488 109.68C234.88 110.021 234.198 110.192 233.44 110.192ZM233.44 108.736C233.846 108.736 234.219 108.635 234.56 108.432C234.912 108.229 235.195 107.931 235.408 107.536C235.622 107.131 235.728 106.629 235.728 106.032C235.728 105.435 235.622 104.939 235.408 104.544C235.206 104.139 234.928 103.835 234.576 103.632C234.235 103.429 233.862 103.328 233.456 103.328C233.051 103.328 232.672 103.429 232.32 103.632C231.979 103.835 231.702 104.139 231.488 104.544C231.275 104.939 231.168 105.435 231.168 106.032C231.168 106.629 231.275 107.131 231.488 107.536C231.702 107.931 231.979 108.229 232.32 108.432C232.662 108.635 233.035 108.736 233.44 108.736ZM239.306 110V102.064H240.826L240.97 103.568C241.248 103.045 241.632 102.635 242.122 102.336C242.624 102.027 243.226 101.872 243.93 101.872V103.648H243.466C242.997 103.648 242.576 103.728 242.202 103.888C241.84 104.037 241.546 104.299 241.322 104.672C241.109 105.035 241.002 105.541 241.002 106.192V110H239.306ZM248.878 110.192C248.099 110.192 247.406 110.021 246.798 109.68C246.2 109.328 245.731 108.843 245.39 108.224C245.048 107.605 244.878 106.885 244.878 106.064C244.878 105.232 245.043 104.501 245.374 103.872C245.715 103.243 246.184 102.752 246.782 102.4C247.39 102.048 248.094 101.872 248.894 101.872C249.672 101.872 250.35 102.048 250.926 102.4C251.502 102.741 251.95 103.2 252.27 103.776C252.59 104.352 252.75 104.987 252.75 105.68C252.75 105.787 252.744 105.904 252.734 106.032C252.734 106.149 252.728 106.283 252.718 106.432H246.542C246.595 107.2 246.846 107.787 247.294 108.192C247.752 108.587 248.28 108.784 248.878 108.784C249.358 108.784 249.758 108.677 250.078 108.464C250.408 108.24 250.654 107.941 250.814 107.568H252.51C252.296 108.315 251.87 108.939 251.23 109.44C250.6 109.941 249.816 110.192 248.878 110.192ZM248.878 103.264C248.312 103.264 247.811 103.435 247.374 103.776C246.936 104.107 246.67 104.608 246.574 105.28H251.054C251.022 104.661 250.803 104.171 250.398 103.808C249.992 103.445 249.486 103.264 248.878 103.264Z" fill="#768396"/>
<path d="M144.472 135V128.488H143.336V127.064H144.472V125.912C144.472 125.048 144.685 124.429 145.112 124.056C145.549 123.672 146.163 123.48 146.952 123.48H147.784V124.92H147.208C146.835 124.92 146.568 125 146.408 125.16C146.248 125.309 146.168 125.565 146.168 125.928V127.064H147.992V128.488H146.168V135H144.472ZM149.603 135V127.064H151.123L151.267 128.568C151.545 128.045 151.929 127.635 152.419 127.336C152.921 127.027 153.523 126.872 154.227 126.872V128.648H153.763C153.294 128.648 152.873 128.728 152.499 128.888C152.137 129.037 151.843 129.299 151.619 129.672C151.406 130.035 151.299 130.541 151.299 131.192V135H149.603ZM159.175 135.192C158.417 135.192 157.735 135.021 157.127 134.68C156.529 134.328 156.055 133.843 155.703 133.224C155.351 132.595 155.175 131.864 155.175 131.032C155.175 130.2 155.351 129.475 155.703 128.856C156.065 128.227 156.551 127.741 157.159 127.4C157.767 127.048 158.444 126.872 159.191 126.872C159.948 126.872 160.625 127.048 161.223 127.4C161.831 127.741 162.311 128.227 162.663 128.856C163.025 129.475 163.207 130.2 163.207 131.032C163.207 131.864 163.025 132.595 162.663 133.224C162.311 133.843 161.831 134.328 161.223 134.68C160.615 135.021 159.932 135.192 159.175 135.192ZM159.175 133.736C159.58 133.736 159.953 133.635 160.295 133.432C160.647 133.229 160.929 132.931 161.143 132.536C161.356 132.131 161.463 131.629 161.463 131.032C161.463 130.435 161.356 129.939 161.143 129.544C160.94 129.139 160.663 128.835 160.311 128.632C159.969 128.429 159.596 128.328 159.191 128.328C158.785 128.328 158.407 128.429 158.055 128.632C157.713 128.835 157.436 129.139 157.223 129.544C157.009 129.939 156.903 130.435 156.903 131.032C156.903 131.629 157.009 132.131 157.223 132.536C157.436 132.931 157.713 133.229 158.055 133.432C158.396 133.635 158.769 133.736 159.175 133.736ZM165.041 135V127.064H166.545L166.689 128.184C166.945 127.779 167.281 127.459 167.697 127.224C168.123 126.989 168.614 126.872 169.169 126.872C170.427 126.872 171.302 127.368 171.793 128.36C172.081 127.901 172.465 127.539 172.945 127.272C173.435 127.005 173.963 126.872 174.529 126.872C175.521 126.872 176.299 127.171 176.865 127.768C177.43 128.365 177.713 129.256 177.713 130.44V135H176.017V130.616C176.017 129.08 175.43 128.312 174.257 128.312C173.659 128.312 173.169 128.536 172.785 128.984C172.411 129.432 172.225 130.072 172.225 130.904V135H170.529V130.616C170.529 129.08 169.937 128.312 168.753 128.312C168.166 128.312 167.681 128.536 167.297 128.984C166.923 129.432 166.737 130.072 166.737 130.904V135H165.041ZM183.728 135V123.48H185.424V135H183.728ZM190.26 135.192C189.588 135.192 189.033 135.08 188.596 134.856C188.159 134.632 187.833 134.339 187.62 133.976C187.407 133.603 187.3 133.197 187.3 132.76C187.3 131.992 187.599 131.384 188.196 130.936C188.793 130.488 189.647 130.264 190.756 130.264H192.836V130.12C192.836 129.501 192.665 129.037 192.324 128.728C191.993 128.419 191.561 128.264 191.028 128.264C190.559 128.264 190.148 128.381 189.796 128.616C189.455 128.84 189.247 129.176 189.172 129.624H187.476C187.529 129.048 187.721 128.557 188.052 128.152C188.393 127.736 188.82 127.421 189.332 127.208C189.855 126.984 190.425 126.872 191.044 126.872C192.153 126.872 193.012 127.165 193.62 127.752C194.228 128.328 194.532 129.117 194.532 130.12V135H193.06L192.916 133.64C192.692 134.077 192.367 134.445 191.94 134.744C191.513 135.043 190.953 135.192 190.26 135.192ZM190.596 133.816C191.055 133.816 191.439 133.709 191.748 133.496C192.068 133.272 192.313 132.979 192.484 132.616C192.665 132.253 192.777 131.853 192.82 131.416H190.932C190.26 131.416 189.78 131.533 189.492 131.768C189.215 132.003 189.076 132.296 189.076 132.648C189.076 133.011 189.209 133.299 189.476 133.512C189.753 133.715 190.127 133.816 190.596 133.816ZM199.678 135.192C198.675 135.192 197.848 134.947 197.198 134.456C196.547 133.965 196.174 133.315 196.078 132.504H197.789C197.875 132.867 198.078 133.181 198.398 133.448C198.718 133.704 199.139 133.832 199.661 133.832C200.174 133.832 200.547 133.725 200.782 133.512C201.016 133.299 201.134 133.053 201.134 132.776C201.134 132.371 200.968 132.099 200.638 131.96C200.318 131.811 199.87 131.677 199.294 131.56C198.846 131.464 198.398 131.336 197.95 131.176C197.512 131.016 197.144 130.792 196.846 130.504C196.558 130.205 196.414 129.805 196.414 129.304C196.414 128.611 196.68 128.035 197.214 127.576C197.747 127.107 198.494 126.872 199.454 126.872C200.339 126.872 201.054 127.085 201.598 127.512C202.152 127.939 202.478 128.541 202.574 129.32H200.942C200.888 128.979 200.728 128.712 200.462 128.52C200.206 128.328 199.859 128.232 199.422 128.232C198.995 128.232 198.664 128.323 198.43 128.504C198.195 128.675 198.078 128.899 198.078 129.176C198.078 129.453 198.238 129.672 198.558 129.832C198.888 129.992 199.32 130.136 199.854 130.264C200.387 130.381 200.878 130.52 201.326 130.68C201.784 130.829 202.152 131.053 202.43 131.352C202.707 131.651 202.846 132.088 202.846 132.664C202.856 133.389 202.574 133.992 201.998 134.472C201.432 134.952 200.659 135.192 199.678 135.192ZM207.728 135C206.949 135 206.331 134.813 205.872 134.44C205.413 134.056 205.184 133.379 205.184 132.408V128.488H203.824V127.064H205.184L205.392 125.048H206.88V127.064H209.12V128.488H206.88V132.408C206.88 132.845 206.971 133.149 207.152 133.32C207.344 133.48 207.669 133.56 208.128 133.56H209.04V135H207.728ZM216.484 135L214.148 127.064H215.844L217.38 133.048L219.108 127.064H220.996L222.724 133.048L224.26 127.064H225.956L223.62 135H221.876L220.052 128.76L218.228 135H216.484ZM230.768 135.192C229.99 135.192 229.296 135.021 228.688 134.68C228.091 134.328 227.622 133.843 227.28 133.224C226.939 132.605 226.768 131.885 226.768 131.064C226.768 130.232 226.934 129.501 227.264 128.872C227.606 128.243 228.075 127.752 228.672 127.4C229.28 127.048 229.984 126.872 230.784 126.872C231.563 126.872 232.24 127.048 232.816 127.4C233.392 127.741 233.84 128.2 234.16 128.776C234.48 129.352 234.64 129.987 234.64 130.68C234.64 130.787 234.635 130.904 234.624 131.032C234.624 131.149 234.619 131.283 234.608 131.432H228.432C228.486 132.2 228.736 132.787 229.184 133.192C229.643 133.587 230.171 133.784 230.768 133.784C231.248 133.784 231.648 133.677 231.968 133.464C232.299 133.24 232.544 132.941 232.704 132.568H234.4C234.187 133.315 233.76 133.939 233.12 134.44C232.491 134.941 231.707 135.192 230.768 135.192ZM230.768 128.264C230.203 128.264 229.702 128.435 229.264 128.776C228.827 129.107 228.56 129.608 228.464 130.28H232.944C232.912 129.661 232.694 129.171 232.288 128.808C231.883 128.445 231.376 128.264 230.768 128.264ZM240.112 135.192C239.333 135.192 238.64 135.021 238.032 134.68C237.435 134.328 236.965 133.843 236.624 133.224C236.283 132.605 236.112 131.885 236.112 131.064C236.112 130.232 236.277 129.501 236.608 128.872C236.949 128.243 237.419 127.752 238.016 127.4C238.624 127.048 239.328 126.872 240.128 126.872C240.907 126.872 241.584 127.048 242.16 127.4C242.736 127.741 243.184 128.2 243.504 128.776C243.824 129.352 243.984 129.987 243.984 130.68C243.984 130.787 243.979 130.904 243.968 131.032C243.968 131.149 243.963 131.283 243.952 131.432H237.776C237.829 132.2 238.08 132.787 238.528 133.192C238.987 133.587 239.515 133.784 240.112 133.784C240.592 133.784 240.992 133.677 241.312 133.464C241.643 133.24 241.888 132.941 242.048 132.568H243.744C243.531 133.315 243.104 133.939 242.464 134.44C241.835 134.941 241.051 135.192 240.112 135.192ZM240.112 128.264C239.547 128.264 239.045 128.435 238.608 128.776C238.171 129.107 237.904 129.608 237.808 130.28H242.288C242.256 129.661 242.037 129.171 241.632 128.808C241.227 128.445 240.72 128.264 240.112 128.264ZM245.744 135V123.48H247.44V130.344L250.48 127.064H252.512L249.136 130.664L253.008 135H250.864L247.44 130.936V135H245.744Z" fill="#768396"/>
<rect x="20" y="82" width="233" height="1" fill="#E8EDF1"/>
<defs>
<filter id="filter0_d_1_391" x="11.6163" y="95.9992" width="97.2159" height="48.0008" filterUnits="userSpaceOnUse" color-interpolation-filters="sRGB">
<feFlood flood-opacity="0" result="BackgroundImageFix"/>
<feColorMatrix in="SourceAlpha" type="matrix" values="0 0 0 0 0 0 0 0 0 0 0 0 0 0 0 0 0 0 127 0" result="hardAlpha"/>
<feOffset dy="7"/>
<feGaussianBlur stdDeviation="4"/>
<feComposite in2="hardAlpha" operator="out"/>
<feColorMatrix type="matrix" values="0 0 0 0 1 0 0 0 0 0.380392 0 0 0 0 0.298039 0 0 0 0.4 0"/>
<feBlend mode="normal" in2="BackgroundImageFix" result="effect1_dropShadow_1_391"/>
<feBlend mode="normal" in="SourceGraphic" in2="effect1_dropShadow_1_391" result="shape"/>
</filter>
</defs>
</svg>
