<svg width="274" height="173" viewBox="0 0 274 173" fill="none" xmlns="http://www.w3.org/2000/svg">
<rect width="274" height="173" rx="16" fill="white"/>
<g filter="url(#filter0_d_1_380)">
<path d="M20 124.254C20.3008 124.379 20.8713 124.594 24.3564 121.875C28.7129 118.477 32.6733 116.098 37.0297 119.157C41.3861 122.215 44.1584 129.692 49.703 127.653C55.2475 125.614 57.2277 110.321 63.9604 108.282C70.6931 106.243 75.0495 118.137 79.802 111.68C84.5545 105.223 89.703 97.0674 93.2673 98.0869C96.1188 98.9025 98.9439 102.278 100 103.864" stroke="#F8B400" stroke-width="2"/>
</g>
<path d="M227.168 47V34.812L224.638 35.406V33.25L228.356 31.6H230.094V47H227.168ZM239.394 47.264C237.971 47.264 236.754 46.934 235.742 46.274C234.73 45.5993 233.945 44.668 233.388 43.48C232.845 42.2773 232.574 40.884 232.574 39.3C232.574 37.7307 232.845 36.3447 233.388 35.142C233.945 33.9393 234.73 33.008 235.742 32.348C236.754 31.6733 237.971 31.336 239.394 31.336C240.817 31.336 242.034 31.6733 243.046 32.348C244.058 33.008 244.835 33.9393 245.378 35.142C245.935 36.3447 246.214 37.7307 246.214 39.3C246.214 40.884 245.935 42.2773 245.378 43.48C244.835 44.668 244.058 45.5993 243.046 46.274C242.034 46.934 240.817 47.264 239.394 47.264ZM239.394 44.734C240.553 44.734 241.499 44.25 242.232 43.282C242.965 42.314 243.332 40.9867 243.332 39.3C243.332 37.6133 242.965 36.286 242.232 35.318C241.499 34.35 240.553 33.866 239.394 33.866C238.221 33.866 237.267 34.35 236.534 35.318C235.815 36.286 235.456 37.6133 235.456 39.3C235.456 40.9867 235.815 42.314 236.534 43.282C237.267 44.25 238.221 44.734 239.394 44.734Z" fill="#1E1E1E"/>
<circle cx="37" cy="39" r="17" fill="#F3F7FD"/>
<path d="M35 37.4H35.8C36.0122 37.4 36.2157 37.3157 36.3657 37.1657C36.5157 37.0157 36.6 36.8122 36.6 36.6C36.6 36.3878 36.5157 36.1843 36.3657 36.0343C36.2157 35.8843 36.0122 35.8 35.8 35.8H35C34.7878 35.8 34.5843 35.8843 34.4343 36.0343C34.2843 36.1843 34.2 36.3878 34.2 36.6C34.2 36.8122 34.2843 37.0157 34.4343 37.1657C34.5843 37.3157 34.7878 37.4 35 37.4ZM35 39C34.7878 39 34.5843 39.0843 34.4343 39.2343C34.2843 39.3843 34.2 39.5878 34.2 39.8C34.2 40.0122 34.2843 40.2157 34.4343 40.3657C34.5843 40.5157 34.7878 40.6 35 40.6H39.8C40.0122 40.6 40.2157 40.5157 40.3657 40.3657C40.5157 40.2157 40.6 40.0122 40.6 39.8C40.6 39.5878 40.5157 39.3843 40.3657 39.2343C40.2157 39.0843 40.0122 39 39.8 39H35ZM43.8 36.552C43.7917 36.4785 43.7756 36.4061 43.752 36.336V36.264C43.7135 36.1817 43.6622 36.1061 43.6 36.04L38.8 31.24C38.7339 31.1778 38.6583 31.1265 38.576 31.088C38.5521 31.0846 38.5279 31.0846 38.504 31.088C38.4227 31.0414 38.333 31.0115 38.24 31H33.4C32.7635 31 32.153 31.2529 31.7029 31.7029C31.2529 32.153 31 32.7635 31 33.4V44.6C31 45.2365 31.2529 45.847 31.7029 46.2971C32.153 46.7471 32.7635 47 33.4 47H41.4C42.0365 47 42.647 46.7471 43.0971 46.2971C43.5471 45.847 43.8 45.2365 43.8 44.6V36.6C43.8 36.6 43.8 36.6 43.8 36.552ZM39 33.728L41.072 35.8H39.8C39.5878 35.8 39.3843 35.7157 39.2343 35.5657C39.0843 35.4157 39 35.2122 39 35V33.728ZM42.2 44.6C42.2 44.8122 42.1157 45.0157 41.9657 45.1657C41.8157 45.3157 41.6122 45.4 41.4 45.4H33.4C33.1878 45.4 32.9843 45.3157 32.8343 45.1657C32.6843 45.0157 32.6 44.8122 32.6 44.6V33.4C32.6 33.1878 32.6843 32.9843 32.8343 32.8343C32.9843 32.6843 33.1878 32.6 33.4 32.6H37.4V35C37.4 35.6365 37.6529 36.247 38.1029 36.6971C38.553 37.1471 39.1635 37.4 39.8 37.4H42.2V44.6ZM39.8 42.2H35C34.7878 42.2 34.5843 42.2843 34.4343 42.4343C34.2843 42.5843 34.2 42.7878 34.2 43C34.2 43.2122 34.2843 43.4157 34.4343 43.5657C34.5843 43.7157 34.7878 43.8 35 43.8H39.8C40.0122 43.8 40.2157 43.7157 40.3657 43.5657C40.5157 43.4157 40.6 43.2122 40.6 43C40.6 42.7878 40.5157 42.5843 40.3657 42.4343C40.2157 42.2843 40.0122 42.2 39.8 42.2Z" fill="#8D98A9"/>
<path d="M67.136 45V33.8H68.832L74.448 42.232V33.8H76.144V45H74.448L68.832 36.568V45H67.136ZM82.0653 45.192C81.2866 45.192 80.5933 45.0213 79.9853 44.68C79.3879 44.328 78.9186 43.8427 78.5773 43.224C78.2359 42.6053 78.0653 41.8853 78.0653 41.064C78.0653 40.232 78.2306 39.5013 78.5613 38.872C78.9026 38.2427 79.3719 37.752 79.9693 37.4C80.5773 37.048 81.2813 36.872 82.0813 36.872C82.8599 36.872 83.5373 37.048 84.1133 37.4C84.6893 37.7413 85.1373 38.2 85.4573 38.776C85.7773 39.352 85.9373 39.9867 85.9373 40.68C85.9373 40.7867 85.9319 40.904 85.9213 41.032C85.9213 41.1493 85.9159 41.2827 85.9053 41.432H79.7293C79.7826 42.2 80.0333 42.7867 80.4813 43.192C80.9399 43.5867 81.4679 43.784 82.0653 43.784C82.5453 43.784 82.9453 43.6773 83.2653 43.464C83.5959 43.24 83.8413 42.9413 84.0013 42.568H85.6973C85.4839 43.3147 85.0573 43.9387 84.4173 44.44C83.7879 44.9413 83.0039 45.192 82.0653 45.192ZM82.0653 38.264C81.4999 38.264 80.9986 38.4347 80.5613 38.776C80.1239 39.1067 79.8573 39.608 79.7613 40.28H84.2413C84.2093 39.6613 83.9906 39.1707 83.5853 38.808C83.1799 38.4453 82.6733 38.264 82.0653 38.264ZM88.9685 45L86.6325 37.064H88.3285L89.8645 43.048L91.5925 37.064H93.4805L95.2085 43.048L96.7445 37.064H98.4405L96.1045 45H94.3605L92.5365 38.76L90.7125 45H88.9685ZM106.557 45V35.176H103.245V33.8H111.549V35.176H108.253V45H106.557ZM114.494 45.192C113.822 45.192 113.268 45.08 112.83 44.856C112.393 44.632 112.068 44.3387 111.854 43.976C111.641 43.6027 111.534 43.1973 111.534 42.76C111.534 41.992 111.833 41.384 112.43 40.936C113.028 40.488 113.881 40.264 114.99 40.264H117.07V40.12C117.07 39.5013 116.9 39.0373 116.558 38.728C116.228 38.4187 115.796 38.264 115.262 38.264C114.793 38.264 114.382 38.3813 114.03 38.616C113.689 38.84 113.481 39.176 113.406 39.624H111.71C111.764 39.048 111.956 38.5573 112.286 38.152C112.628 37.736 113.054 37.4213 113.566 37.208C114.089 36.984 114.66 36.872 115.278 36.872C116.388 36.872 117.246 37.1653 117.854 37.752C118.462 38.328 118.766 39.1173 118.766 40.12V45H117.294L117.15 43.64C116.926 44.0773 116.601 44.4453 116.174 44.744C115.748 45.0427 115.188 45.192 114.494 45.192ZM114.83 43.816C115.289 43.816 115.673 43.7093 115.982 43.496C116.302 43.272 116.548 42.9787 116.718 42.616C116.9 42.2533 117.012 41.8533 117.054 41.416H115.166C114.494 41.416 114.014 41.5333 113.726 41.768C113.449 42.0027 113.31 42.296 113.31 42.648C113.31 43.0107 113.444 43.2987 113.71 43.512C113.988 43.7147 114.361 43.816 114.83 43.816ZM123.912 45.192C122.909 45.192 122.083 44.9467 121.432 44.456C120.781 43.9653 120.408 43.3147 120.312 42.504H122.024C122.109 42.8667 122.312 43.1813 122.632 43.448C122.952 43.704 123.373 43.832 123.896 43.832C124.408 43.832 124.781 43.7253 125.016 43.512C125.251 43.2987 125.368 43.0533 125.368 42.776C125.368 42.3707 125.203 42.0987 124.872 41.96C124.552 41.8107 124.104 41.6773 123.528 41.56C123.08 41.464 122.632 41.336 122.184 41.176C121.747 41.016 121.379 40.792 121.08 40.504C120.792 40.2053 120.648 39.8053 120.648 39.304C120.648 38.6107 120.915 38.0347 121.448 37.576C121.981 37.1067 122.728 36.872 123.688 36.872C124.573 36.872 125.288 37.0853 125.832 37.512C126.387 37.9387 126.712 38.5413 126.808 39.32H125.176C125.123 38.9787 124.963 38.712 124.696 38.52C124.44 38.328 124.093 38.232 123.656 38.232C123.229 38.232 122.899 38.3227 122.664 38.504C122.429 38.6747 122.312 38.8987 122.312 39.176C122.312 39.4533 122.472 39.672 122.792 39.832C123.123 39.992 123.555 40.136 124.088 40.264C124.621 40.3813 125.112 40.52 125.56 40.68C126.019 40.8293 126.387 41.0533 126.664 41.352C126.941 41.6507 127.08 42.088 127.08 42.664C127.091 43.3893 126.808 43.992 126.232 44.472C125.667 44.952 124.893 45.192 123.912 45.192ZM128.931 45V33.48H130.627V40.344L133.667 37.064H135.699L132.323 40.664L136.195 45H134.051L130.627 40.936V45H128.931Z" fill="#8C97A8"/>
<path d="M186.304 110V101.136L184.464 101.568V100L187.168 98.8H188.432V110H186.304ZM195.196 110.192C194.161 110.192 193.276 109.952 192.54 109.472C191.804 108.981 191.233 108.304 190.828 107.44C190.433 106.565 190.236 105.552 190.236 104.4C190.236 103.259 190.433 102.251 190.828 101.376C191.233 100.501 191.804 99.824 192.54 99.344C193.276 98.8533 194.161 98.608 195.196 98.608C196.23 98.608 197.116 98.8533 197.852 99.344C198.588 99.824 199.153 100.501 199.548 101.376C199.953 102.251 200.156 103.259 200.156 104.4C200.156 105.552 199.953 106.565 199.548 107.44C199.153 108.304 198.588 108.981 197.852 109.472C197.116 109.952 196.23 110.192 195.196 110.192ZM195.196 108.352C196.038 108.352 196.726 108 197.26 107.296C197.793 106.592 198.06 105.627 198.06 104.4C198.06 103.173 197.793 102.208 197.26 101.504C196.726 100.8 196.038 100.448 195.196 100.448C194.342 100.448 193.649 100.8 193.116 101.504C192.593 102.208 192.332 103.173 192.332 104.4C192.332 105.627 192.593 106.592 193.116 107.296C193.649 108 194.342 108.352 195.196 108.352ZM201.771 106.224V104.512H204.779V101.744H206.523V104.512H209.515V106.224H206.523V108.992H204.779V106.224H201.771Z" fill="#299702"/>
<path d="M215.525 110V102.064H217.029L217.173 103.184C217.429 102.779 217.765 102.459 218.181 102.224C218.608 101.989 219.098 101.872 219.653 101.872C220.912 101.872 221.786 102.368 222.277 103.36C222.565 102.901 222.949 102.539 223.429 102.272C223.92 102.005 224.448 101.872 225.013 101.872C226.005 101.872 226.784 102.171 227.349 102.768C227.914 103.365 228.197 104.256 228.197 105.44V110H226.501V105.616C226.501 104.08 225.914 103.312 224.741 103.312C224.144 103.312 223.653 103.536 223.269 103.984C222.896 104.432 222.709 105.072 222.709 105.904V110H221.013V105.616C221.013 104.08 220.421 103.312 219.237 103.312C218.65 103.312 218.165 103.536 217.781 103.984C217.408 104.432 217.221 105.072 217.221 105.904V110H215.525ZM233.893 110.192C233.136 110.192 232.453 110.021 231.845 109.68C231.248 109.328 230.773 108.843 230.421 108.224C230.069 107.595 229.893 106.864 229.893 106.032C229.893 105.2 230.069 104.475 230.421 103.856C230.784 103.227 231.269 102.741 231.877 102.4C232.485 102.048 233.163 101.872 233.909 101.872C234.667 101.872 235.344 102.048 235.941 102.4C236.549 102.741 237.029 103.227 237.381 103.856C237.744 104.475 237.925 105.2 237.925 106.032C237.925 106.864 237.744 107.595 237.381 108.224C237.029 108.843 236.549 109.328 235.941 109.68C235.333 110.021 234.651 110.192 233.893 110.192ZM233.893 108.736C234.299 108.736 234.672 108.635 235.013 108.432C235.365 108.229 235.648 107.931 235.861 107.536C236.075 107.131 236.181 106.629 236.181 106.032C236.181 105.435 236.075 104.939 235.861 104.544C235.659 104.139 235.381 103.835 235.029 103.632C234.688 103.429 234.315 103.328 233.909 103.328C233.504 103.328 233.125 103.429 232.773 103.632C232.432 103.835 232.155 104.139 231.941 104.544C231.728 104.939 231.621 105.435 231.621 106.032C231.621 106.629 231.728 107.131 231.941 107.536C232.155 107.931 232.432 108.229 232.773 108.432C233.115 108.635 233.488 108.736 233.893 108.736ZM239.76 110V102.064H241.28L241.424 103.568C241.701 103.045 242.085 102.635 242.576 102.336C243.077 102.027 243.68 101.872 244.384 101.872V103.648H243.92C243.45 103.648 243.029 103.728 242.656 103.888C242.293 104.037 242 104.299 241.776 104.672C241.562 105.035 241.456 105.541 241.456 106.192V110H239.76ZM249.331 110.192C248.552 110.192 247.859 110.021 247.251 109.68C246.654 109.328 246.184 108.843 245.843 108.224C245.502 107.605 245.331 106.885 245.331 106.064C245.331 105.232 245.496 104.501 245.827 103.872C246.168 103.243 246.638 102.752 247.235 102.4C247.843 102.048 248.547 101.872 249.347 101.872C250.126 101.872 250.803 102.048 251.379 102.4C251.955 102.741 252.403 103.2 252.723 103.776C253.043 104.352 253.203 104.987 253.203 105.68C253.203 105.787 253.198 105.904 253.187 106.032C253.187 106.149 253.182 106.283 253.171 106.432H246.995C247.048 107.2 247.299 107.787 247.747 108.192C248.206 108.587 248.734 108.784 249.331 108.784C249.811 108.784 250.211 108.677 250.531 108.464C250.862 108.24 251.107 107.941 251.267 107.568H252.963C252.75 108.315 252.323 108.939 251.683 109.44C251.054 109.941 250.27 110.192 249.331 110.192ZM249.331 103.264C248.766 103.264 248.264 103.435 247.827 103.776C247.39 104.107 247.123 104.608 247.027 105.28H251.507C251.475 104.661 251.256 104.171 250.851 103.808C250.446 103.445 249.939 103.264 249.331 103.264Z" fill="#768396"/>
<path d="M144.472 135V128.488H143.336V127.064H144.472V125.912C144.472 125.048 144.685 124.429 145.112 124.056C145.549 123.672 146.163 123.48 146.952 123.48H147.784V124.92H147.208C146.835 124.92 146.568 125 146.408 125.16C146.248 125.309 146.168 125.565 146.168 125.928V127.064H147.992V128.488H146.168V135H144.472ZM149.603 135V127.064H151.123L151.267 128.568C151.545 128.045 151.929 127.635 152.419 127.336C152.921 127.027 153.523 126.872 154.227 126.872V128.648H153.763C153.294 128.648 152.873 128.728 152.499 128.888C152.137 129.037 151.843 129.299 151.619 129.672C151.406 130.035 151.299 130.541 151.299 131.192V135H149.603ZM159.175 135.192C158.417 135.192 157.735 135.021 157.127 134.68C156.529 134.328 156.055 133.843 155.703 133.224C155.351 132.595 155.175 131.864 155.175 131.032C155.175 130.2 155.351 129.475 155.703 128.856C156.065 128.227 156.551 127.741 157.159 127.4C157.767 127.048 158.444 126.872 159.191 126.872C159.948 126.872 160.625 127.048 161.223 127.4C161.831 127.741 162.311 128.227 162.663 128.856C163.025 129.475 163.207 130.2 163.207 131.032C163.207 131.864 163.025 132.595 162.663 133.224C162.311 133.843 161.831 134.328 161.223 134.68C160.615 135.021 159.932 135.192 159.175 135.192ZM159.175 133.736C159.58 133.736 159.953 133.635 160.295 133.432C160.647 133.229 160.929 132.931 161.143 132.536C161.356 132.131 161.463 131.629 161.463 131.032C161.463 130.435 161.356 129.939 161.143 129.544C160.94 129.139 160.663 128.835 160.311 128.632C159.969 128.429 159.596 128.328 159.191 128.328C158.785 128.328 158.407 128.429 158.055 128.632C157.713 128.835 157.436 129.139 157.223 129.544C157.009 129.939 156.903 130.435 156.903 131.032C156.903 131.629 157.009 132.131 157.223 132.536C157.436 132.931 157.713 133.229 158.055 133.432C158.396 133.635 158.769 133.736 159.175 133.736ZM165.041 135V127.064H166.545L166.689 128.184C166.945 127.779 167.281 127.459 167.697 127.224C168.123 126.989 168.614 126.872 169.169 126.872C170.427 126.872 171.302 127.368 171.793 128.36C172.081 127.901 172.465 127.539 172.945 127.272C173.435 127.005 173.963 126.872 174.529 126.872C175.521 126.872 176.299 127.171 176.865 127.768C177.43 128.365 177.713 129.256 177.713 130.44V135H176.017V130.616C176.017 129.08 175.43 128.312 174.257 128.312C173.659 128.312 173.169 128.536 172.785 128.984C172.411 129.432 172.225 130.072 172.225 130.904V135H170.529V130.616C170.529 129.08 169.937 128.312 168.753 128.312C168.166 128.312 167.681 128.536 167.297 128.984C166.923 129.432 166.737 130.072 166.737 130.904V135H165.041ZM183.728 135V123.48H185.424V135H183.728ZM190.26 135.192C189.588 135.192 189.033 135.08 188.596 134.856C188.159 134.632 187.833 134.339 187.62 133.976C187.407 133.603 187.3 133.197 187.3 132.76C187.3 131.992 187.599 131.384 188.196 130.936C188.793 130.488 189.647 130.264 190.756 130.264H192.836V130.12C192.836 129.501 192.665 129.037 192.324 128.728C191.993 128.419 191.561 128.264 191.028 128.264C190.559 128.264 190.148 128.381 189.796 128.616C189.455 128.84 189.247 129.176 189.172 129.624H187.476C187.529 129.048 187.721 128.557 188.052 128.152C188.393 127.736 188.82 127.421 189.332 127.208C189.855 126.984 190.425 126.872 191.044 126.872C192.153 126.872 193.012 127.165 193.62 127.752C194.228 128.328 194.532 129.117 194.532 130.12V135H193.06L192.916 133.64C192.692 134.077 192.367 134.445 191.94 134.744C191.513 135.043 190.953 135.192 190.26 135.192ZM190.596 133.816C191.055 133.816 191.439 133.709 191.748 133.496C192.068 133.272 192.313 132.979 192.484 132.616C192.665 132.253 192.777 131.853 192.82 131.416H190.932C190.26 131.416 189.78 131.533 189.492 131.768C189.215 132.003 189.076 132.296 189.076 132.648C189.076 133.011 189.209 133.299 189.476 133.512C189.753 133.715 190.127 133.816 190.596 133.816ZM199.678 135.192C198.675 135.192 197.848 134.947 197.198 134.456C196.547 133.965 196.174 133.315 196.078 132.504H197.789C197.875 132.867 198.078 133.181 198.398 133.448C198.718 133.704 199.139 133.832 199.661 133.832C200.174 133.832 200.547 133.725 200.782 133.512C201.016 133.299 201.134 133.053 201.134 132.776C201.134 132.371 200.968 132.099 200.638 131.96C200.318 131.811 199.87 131.677 199.294 131.56C198.846 131.464 198.398 131.336 197.95 131.176C197.512 131.016 197.144 130.792 196.846 130.504C196.558 130.205 196.414 129.805 196.414 129.304C196.414 128.611 196.68 128.035 197.214 127.576C197.747 127.107 198.494 126.872 199.454 126.872C200.339 126.872 201.054 127.085 201.598 127.512C202.152 127.939 202.478 128.541 202.574 129.32H200.942C200.888 128.979 200.728 128.712 200.462 128.52C200.206 128.328 199.859 128.232 199.422 128.232C198.995 128.232 198.664 128.323 198.43 128.504C198.195 128.675 198.078 128.899 198.078 129.176C198.078 129.453 198.238 129.672 198.558 129.832C198.888 129.992 199.32 130.136 199.854 130.264C200.387 130.381 200.878 130.52 201.326 130.68C201.784 130.829 202.152 131.053 202.43 131.352C202.707 131.651 202.846 132.088 202.846 132.664C202.856 133.389 202.574 133.992 201.998 134.472C201.432 134.952 200.659 135.192 199.678 135.192ZM207.728 135C206.949 135 206.331 134.813 205.872 134.44C205.413 134.056 205.184 133.379 205.184 132.408V128.488H203.824V127.064H205.184L205.392 125.048H206.88V127.064H209.12V128.488H206.88V132.408C206.88 132.845 206.971 133.149 207.152 133.32C207.344 133.48 207.669 133.56 208.128 133.56H209.04V135H207.728ZM216.484 135L214.148 127.064H215.844L217.38 133.048L219.108 127.064H220.996L222.724 133.048L224.26 127.064H225.956L223.62 135H221.876L220.052 128.76L218.228 135H216.484ZM230.768 135.192C229.99 135.192 229.296 135.021 228.688 134.68C228.091 134.328 227.622 133.843 227.28 133.224C226.939 132.605 226.768 131.885 226.768 131.064C226.768 130.232 226.934 129.501 227.264 128.872C227.606 128.243 228.075 127.752 228.672 127.4C229.28 127.048 229.984 126.872 230.784 126.872C231.563 126.872 232.24 127.048 232.816 127.4C233.392 127.741 233.84 128.2 234.16 128.776C234.48 129.352 234.64 129.987 234.64 130.68C234.64 130.787 234.635 130.904 234.624 131.032C234.624 131.149 234.619 131.283 234.608 131.432H228.432C228.486 132.2 228.736 132.787 229.184 133.192C229.643 133.587 230.171 133.784 230.768 133.784C231.248 133.784 231.648 133.677 231.968 133.464C232.299 133.24 232.544 132.941 232.704 132.568H234.4C234.187 133.315 233.76 133.939 233.12 134.44C232.491 134.941 231.707 135.192 230.768 135.192ZM230.768 128.264C230.203 128.264 229.702 128.435 229.264 128.776C228.827 129.107 228.56 129.608 228.464 130.28H232.944C232.912 129.661 232.694 129.171 232.288 128.808C231.883 128.445 231.376 128.264 230.768 128.264ZM240.112 135.192C239.333 135.192 238.64 135.021 238.032 134.68C237.435 134.328 236.965 133.843 236.624 133.224C236.283 132.605 236.112 131.885 236.112 131.064C236.112 130.232 236.277 129.501 236.608 128.872C236.949 128.243 237.419 127.752 238.016 127.4C238.624 127.048 239.328 126.872 240.128 126.872C240.907 126.872 241.584 127.048 242.16 127.4C242.736 127.741 243.184 128.2 243.504 128.776C243.824 129.352 243.984 129.987 243.984 130.68C243.984 130.787 243.979 130.904 243.968 131.032C243.968 131.149 243.963 131.283 243.952 131.432H237.776C237.829 132.2 238.08 132.787 238.528 133.192C238.987 133.587 239.515 133.784 240.112 133.784C240.592 133.784 240.992 133.677 241.312 133.464C241.643 133.24 241.888 132.941 242.048 132.568H243.744C243.531 133.315 243.104 133.939 242.464 134.44C241.835 134.941 241.051 135.192 240.112 135.192ZM240.112 128.264C239.547 128.264 239.045 128.435 238.608 128.776C238.171 129.107 237.904 129.608 237.808 130.28H242.288C242.256 129.661 242.037 129.171 241.632 128.808C241.227 128.445 240.72 128.264 240.112 128.264ZM245.744 135V123.48H247.44V130.344L250.48 127.064H252.512L249.136 130.664L253.008 135H250.864L247.44 130.936V135H245.744Z" fill="#768396"/>
<rect x="20" y="82" width="233" height="1" fill="#E8EDF1"/>
<defs>
<filter id="filter0_d_1_380" x="11.6163" y="95.9992" width="97.2159" height="48.0008" filterUnits="userSpaceOnUse" color-interpolation-filters="sRGB">
<feFlood flood-opacity="0" result="BackgroundImageFix"/>
<feColorMatrix in="SourceAlpha" type="matrix" values="0 0 0 0 0 0 0 0 0 0 0 0 0 0 0 0 0 0 127 0" result="hardAlpha"/>
<feOffset dy="7"/>
<feGaussianBlur stdDeviation="4"/>
<feComposite in2="hardAlpha" operator="out"/>
<feColorMatrix type="matrix" values="0 0 0 0 0.972549 0 0 0 0 0.705882 0 0 0 0 0 0 0 0 0.4 0"/>
<feBlend mode="normal" in2="BackgroundImageFix" result="effect1_dropShadow_1_380"/>
<feBlend mode="normal" in="SourceGraphic" in2="effect1_dropShadow_1_380" result="shape"/>
</filter>
</defs>
</svg>
