<svg width="870" height="370" viewBox="0 0 870 370" fill="none" xmlns="http://www.w3.org/2000/svg">
<rect width="870" height="370" rx="16" fill="white"/>
<path d="M28.692 100V98.2H24.432V97.42L28.512 91.6H29.688V97.312H30.936V98.2H29.688V100H28.692ZM25.548 97.312H28.74V92.716L25.548 97.312ZM35.4296 100.144C34.6856 100.144 34.0416 99.964 33.4976 99.604C32.9616 99.236 32.5496 98.728 32.2616 98.08C31.9736 97.424 31.8296 96.664 31.8296 95.8C31.8296 94.936 31.9736 94.18 32.2616 93.532C32.5496 92.876 32.9616 92.368 33.4976 92.008C34.0416 91.64 34.6856 91.456 35.4296 91.456C36.1736 91.456 36.8136 91.64 37.3496 92.008C37.8856 92.368 38.2976 92.876 38.5856 93.532C38.8736 94.18 39.0176 94.936 39.0176 95.8C39.0176 96.664 38.8736 97.424 38.5856 98.08C38.2976 98.728 37.8856 99.236 37.3496 99.604C36.8136 99.964 36.1736 100.144 35.4296 100.144ZM35.4296 99.256C35.9176 99.256 36.3536 99.12 36.7376 98.848C37.1296 98.568 37.4336 98.172 37.6496 97.66C37.8736 97.14 37.9856 96.52 37.9856 95.8C37.9856 95.08 37.8736 94.464 37.6496 93.952C37.4336 93.44 37.1296 93.048 36.7376 92.776C36.3536 92.496 35.9176 92.356 35.4296 92.356C34.9336 92.356 34.4936 92.496 34.1096 92.776C33.7256 93.048 33.4216 93.44 33.1976 93.952C32.9736 94.464 32.8616 95.08 32.8616 95.8C32.8616 96.52 32.9736 97.14 33.1976 97.66C33.4216 98.172 33.7256 98.568 34.1096 98.848C34.4936 99.12 34.9336 99.256 35.4296 99.256ZM43.7499 100.144C43.0059 100.144 42.3619 99.964 41.8179 99.604C41.2819 99.236 40.8699 98.728 40.5819 98.08C40.2939 97.424 40.1499 96.664 40.1499 95.8C40.1499 94.936 40.2939 94.18 40.5819 93.532C40.8699 92.876 41.2819 92.368 41.8179 92.008C42.3619 91.64 43.0059 91.456 43.7499 91.456C44.4939 91.456 45.1339 91.64 45.6699 92.008C46.2059 92.368 46.6179 92.876 46.9059 93.532C47.1939 94.18 47.3379 94.936 47.3379 95.8C47.3379 96.664 47.1939 97.424 46.9059 98.08C46.6179 98.728 46.2059 99.236 45.6699 99.604C45.1339 99.964 44.4939 100.144 43.7499 100.144ZM43.7499 99.256C44.2379 99.256 44.6739 99.12 45.0579 98.848C45.4499 98.568 45.7539 98.172 45.9699 97.66C46.1939 97.14 46.3059 96.52 46.3059 95.8C46.3059 95.08 46.1939 94.464 45.9699 93.952C45.7539 93.44 45.4499 93.048 45.0579 92.776C44.6739 92.496 44.2379 92.356 43.7499 92.356C43.2539 92.356 42.8139 92.496 42.4299 92.776C42.0459 93.048 41.7419 93.44 41.5179 93.952C41.2939 94.464 41.1819 95.08 41.1819 95.8C41.1819 96.52 41.2939 97.14 41.5179 97.66C41.7419 98.172 42.0459 98.568 42.4299 98.848C42.8139 99.12 43.2539 99.256 43.7499 99.256Z" fill="#768396"/>
<path d="M27.504 155.144C26.968 155.144 26.484 155.048 26.052 154.856C25.62 154.656 25.272 154.36 25.008 153.968C24.752 153.576 24.616 153.088 24.6 152.504H25.62C25.628 152.984 25.796 153.4 26.124 153.752C26.452 154.096 26.912 154.268 27.504 154.268C28.096 154.268 28.54 154.104 28.836 153.776C29.14 153.448 29.292 153.052 29.292 152.588C29.292 152.196 29.196 151.876 29.004 151.628C28.82 151.38 28.568 151.196 28.248 151.076C27.936 150.956 27.592 150.896 27.216 150.896H26.592V150.044H27.216C27.76 150.044 28.184 149.92 28.488 149.672C28.8 149.424 28.956 149.076 28.956 148.628C28.956 148.252 28.832 147.944 28.584 147.704C28.344 147.456 27.984 147.332 27.504 147.332C27.04 147.332 26.668 147.472 26.388 147.752C26.108 148.024 25.952 148.368 25.92 148.784H24.9C24.924 148.328 25.044 147.924 25.26 147.572C25.484 147.22 25.788 146.948 26.172 146.756C26.556 146.556 27 146.456 27.504 146.456C28.048 146.456 28.5 146.552 28.86 146.744C29.228 146.936 29.504 147.192 29.688 147.512C29.88 147.832 29.976 148.184 29.976 148.568C29.976 148.992 29.86 149.38 29.628 149.732C29.396 150.076 29.048 150.308 28.584 150.428C29.08 150.532 29.492 150.768 29.82 151.136C30.148 151.504 30.312 151.988 30.312 152.588C30.312 153.052 30.204 153.48 29.988 153.872C29.78 154.256 29.468 154.564 29.052 154.796C28.636 155.028 28.12 155.144 27.504 155.144ZM35.2187 155.144C34.4747 155.144 33.8307 154.964 33.2867 154.604C32.7507 154.236 32.3387 153.728 32.0507 153.08C31.7627 152.424 31.6187 151.664 31.6187 150.8C31.6187 149.936 31.7627 149.18 32.0507 148.532C32.3387 147.876 32.7507 147.368 33.2867 147.008C33.8307 146.64 34.4747 146.456 35.2187 146.456C35.9627 146.456 36.6027 146.64 37.1387 147.008C37.6747 147.368 38.0867 147.876 38.3747 148.532C38.6627 149.18 38.8067 149.936 38.8067 150.8C38.8067 151.664 38.6627 152.424 38.3747 153.08C38.0867 153.728 37.6747 154.236 37.1387 154.604C36.6027 154.964 35.9627 155.144 35.2187 155.144ZM35.2187 154.256C35.7067 154.256 36.1427 154.12 36.5267 153.848C36.9187 153.568 37.2227 153.172 37.4387 152.66C37.6627 152.14 37.7747 151.52 37.7747 150.8C37.7747 150.08 37.6627 149.464 37.4387 148.952C37.2227 148.44 36.9187 148.048 36.5267 147.776C36.1427 147.496 35.7067 147.356 35.2187 147.356C34.7227 147.356 34.2827 147.496 33.8987 147.776C33.5147 148.048 33.2107 148.44 32.9867 148.952C32.7627 149.464 32.6507 150.08 32.6507 150.8C32.6507 151.52 32.7627 152.14 32.9867 152.66C33.2107 153.172 33.5147 153.568 33.8987 153.848C34.2827 154.12 34.7227 154.256 35.2187 154.256ZM43.539 155.144C42.795 155.144 42.151 154.964 41.607 154.604C41.071 154.236 40.659 153.728 40.371 153.08C40.083 152.424 39.939 151.664 39.939 150.8C39.939 149.936 40.083 149.18 40.371 148.532C40.659 147.876 41.071 147.368 41.607 147.008C42.151 146.64 42.795 146.456 43.539 146.456C44.283 146.456 44.923 146.64 45.459 147.008C45.995 147.368 46.407 147.876 46.695 148.532C46.983 149.18 47.127 149.936 47.127 150.8C47.127 151.664 46.983 152.424 46.695 153.08C46.407 153.728 45.995 154.236 45.459 154.604C44.923 154.964 44.283 155.144 43.539 155.144ZM43.539 154.256C44.027 154.256 44.463 154.12 44.847 153.848C45.239 153.568 45.543 153.172 45.759 152.66C45.983 152.14 46.095 151.52 46.095 150.8C46.095 150.08 45.983 149.464 45.759 148.952C45.543 148.44 45.239 148.048 44.847 147.776C44.463 147.496 44.027 147.356 43.539 147.356C43.043 147.356 42.603 147.496 42.219 147.776C41.835 148.048 41.531 148.44 41.307 148.952C41.083 149.464 40.971 150.08 40.971 150.8C40.971 151.52 41.083 152.14 41.307 152.66C41.531 153.172 41.835 153.568 42.219 153.848C42.603 154.12 43.043 154.256 43.539 154.256Z" fill="#768396"/>
<path d="M24.756 210V209.292C25.324 208.844 25.86 208.392 26.364 207.936C26.876 207.472 27.328 207.016 27.72 206.568C28.12 206.12 28.432 205.68 28.656 205.248C28.888 204.816 29.004 204.4 29.004 204C29.004 203.704 28.952 203.428 28.848 203.172C28.752 202.916 28.592 202.712 28.368 202.56C28.144 202.4 27.84 202.32 27.456 202.32C27.088 202.32 26.78 202.404 26.532 202.572C26.284 202.732 26.096 202.948 25.968 203.22C25.848 203.492 25.788 203.784 25.788 204.096H24.816C24.816 203.544 24.932 203.072 25.164 202.68C25.396 202.28 25.712 201.976 26.112 201.768C26.512 201.56 26.964 201.456 27.468 201.456C28.212 201.456 28.82 201.668 29.292 202.092C29.772 202.508 30.012 203.132 30.012 203.964C30.012 204.46 29.888 204.952 29.64 205.44C29.392 205.92 29.076 206.388 28.692 206.844C28.308 207.292 27.896 207.712 27.456 208.104C27.024 208.496 26.62 208.848 26.244 209.16H30.3V210H24.756ZM34.914 210.144C34.17 210.144 33.526 209.964 32.982 209.604C32.446 209.236 32.034 208.728 31.746 208.08C31.458 207.424 31.314 206.664 31.314 205.8C31.314 204.936 31.458 204.18 31.746 203.532C32.034 202.876 32.446 202.368 32.982 202.008C33.526 201.64 34.17 201.456 34.914 201.456C35.658 201.456 36.298 201.64 36.834 202.008C37.37 202.368 37.782 202.876 38.07 203.532C38.358 204.18 38.502 204.936 38.502 205.8C38.502 206.664 38.358 207.424 38.07 208.08C37.782 208.728 37.37 209.236 36.834 209.604C36.298 209.964 35.658 210.144 34.914 210.144ZM34.914 209.256C35.402 209.256 35.838 209.12 36.222 208.848C36.614 208.568 36.918 208.172 37.134 207.66C37.358 207.14 37.47 206.52 37.47 205.8C37.47 205.08 37.358 204.464 37.134 203.952C36.918 203.44 36.614 203.048 36.222 202.776C35.838 202.496 35.402 202.356 34.914 202.356C34.418 202.356 33.978 202.496 33.594 202.776C33.21 203.048 32.906 203.44 32.682 203.952C32.458 204.464 32.346 205.08 32.346 205.8C32.346 206.52 32.458 207.14 32.682 207.66C32.906 208.172 33.21 208.568 33.594 208.848C33.978 209.12 34.418 209.256 34.914 209.256ZM43.2343 210.144C42.4903 210.144 41.8463 209.964 41.3023 209.604C40.7663 209.236 40.3543 208.728 40.0663 208.08C39.7783 207.424 39.6343 206.664 39.6343 205.8C39.6343 204.936 39.7783 204.18 40.0663 203.532C40.3543 202.876 40.7663 202.368 41.3023 202.008C41.8463 201.64 42.4903 201.456 43.2343 201.456C43.9783 201.456 44.6183 201.64 45.1543 202.008C45.6903 202.368 46.1023 202.876 46.3903 203.532C46.6783 204.18 46.8223 204.936 46.8223 205.8C46.8223 206.664 46.6783 207.424 46.3903 208.08C46.1023 208.728 45.6903 209.236 45.1543 209.604C44.6183 209.964 43.9783 210.144 43.2343 210.144ZM43.2343 209.256C43.7223 209.256 44.1583 209.12 44.5423 208.848C44.9343 208.568 45.2383 208.172 45.4543 207.66C45.6783 207.14 45.7903 206.52 45.7903 205.8C45.7903 205.08 45.6783 204.464 45.4543 203.952C45.2383 203.44 44.9343 203.048 44.5423 202.776C44.1583 202.496 43.7223 202.356 43.2343 202.356C42.7383 202.356 42.2983 202.496 41.9143 202.776C41.5303 203.048 41.2263 203.44 41.0023 203.952C40.7783 204.464 40.6663 205.08 40.6663 205.8C40.6663 206.52 40.7783 207.14 41.0023 207.66C41.2263 208.172 41.5303 208.568 41.9143 208.848C42.2983 209.12 42.7383 209.256 43.2343 209.256Z" fill="#768396"/>
<path d="M25.716 265V257.728L24.36 258.028V257.332L26.052 256.6H26.736V265H25.716ZM31.7851 265.144C31.0411 265.144 30.3971 264.964 29.8531 264.604C29.3171 264.236 28.9051 263.728 28.6171 263.08C28.3291 262.424 28.1851 261.664 28.1851 260.8C28.1851 259.936 28.3291 259.18 28.6171 258.532C28.9051 257.876 29.3171 257.368 29.8531 257.008C30.3971 256.64 31.0411 256.456 31.7851 256.456C32.5291 256.456 33.1691 256.64 33.7051 257.008C34.2411 257.368 34.6531 257.876 34.9411 258.532C35.2291 259.18 35.3731 259.936 35.3731 260.8C35.3731 261.664 35.2291 262.424 34.9411 263.08C34.6531 263.728 34.2411 264.236 33.7051 264.604C33.1691 264.964 32.5291 265.144 31.7851 265.144ZM31.7851 264.256C32.2731 264.256 32.7091 264.12 33.0931 263.848C33.4851 263.568 33.7891 263.172 34.0051 262.66C34.2291 262.14 34.3411 261.52 34.3411 260.8C34.3411 260.08 34.2291 259.464 34.0051 258.952C33.7891 258.44 33.4851 258.048 33.0931 257.776C32.7091 257.496 32.2731 257.356 31.7851 257.356C31.2891 257.356 30.8491 257.496 30.4651 257.776C30.0811 258.048 29.7771 258.44 29.5531 258.952C29.3291 259.464 29.2171 260.08 29.2171 260.8C29.2171 261.52 29.3291 262.14 29.5531 262.66C29.7771 263.172 30.0811 263.568 30.4651 263.848C30.8491 264.12 31.2891 264.256 31.7851 264.256ZM40.1054 265.144C39.3614 265.144 38.7174 264.964 38.1734 264.604C37.6374 264.236 37.2254 263.728 36.9374 263.08C36.6494 262.424 36.5054 261.664 36.5054 260.8C36.5054 259.936 36.6494 259.18 36.9374 258.532C37.2254 257.876 37.6374 257.368 38.1734 257.008C38.7174 256.64 39.3614 256.456 40.1054 256.456C40.8494 256.456 41.4894 256.64 42.0254 257.008C42.5614 257.368 42.9734 257.876 43.2614 258.532C43.5494 259.18 43.6934 259.936 43.6934 260.8C43.6934 261.664 43.5494 262.424 43.2614 263.08C42.9734 263.728 42.5614 264.236 42.0254 264.604C41.4894 264.964 40.8494 265.144 40.1054 265.144ZM40.1054 264.256C40.5934 264.256 41.0294 264.12 41.4134 263.848C41.8054 263.568 42.1094 263.172 42.3254 262.66C42.5494 262.14 42.6614 261.52 42.6614 260.8C42.6614 260.08 42.5494 259.464 42.3254 258.952C42.1094 258.44 41.8054 258.048 41.4134 257.776C41.0294 257.496 40.5934 257.356 40.1054 257.356C39.6094 257.356 39.1694 257.496 38.7854 257.776C38.4014 258.048 38.0974 258.44 37.8734 258.952C37.6494 259.464 37.5374 260.08 37.5374 260.8C37.5374 261.52 37.6494 262.14 37.8734 262.66C38.0974 263.172 38.4014 263.568 38.7854 263.848C39.1694 264.12 39.6094 264.256 40.1054 264.256Z" fill="#768396"/>
<path d="M28.164 320.144C27.42 320.144 26.776 319.964 26.232 319.604C25.696 319.236 25.284 318.728 24.996 318.08C24.708 317.424 24.564 316.664 24.564 315.8C24.564 314.936 24.708 314.18 24.996 313.532C25.284 312.876 25.696 312.368 26.232 312.008C26.776 311.64 27.42 311.456 28.164 311.456C28.908 311.456 29.548 311.64 30.084 312.008C30.62 312.368 31.032 312.876 31.32 313.532C31.608 314.18 31.752 314.936 31.752 315.8C31.752 316.664 31.608 317.424 31.32 318.08C31.032 318.728 30.62 319.236 30.084 319.604C29.548 319.964 28.908 320.144 28.164 320.144ZM28.164 319.256C28.652 319.256 29.088 319.12 29.472 318.848C29.864 318.568 30.168 318.172 30.384 317.66C30.608 317.14 30.72 316.52 30.72 315.8C30.72 315.08 30.608 314.464 30.384 313.952C30.168 313.44 29.864 313.048 29.472 312.776C29.088 312.496 28.652 312.356 28.164 312.356C27.668 312.356 27.228 312.496 26.844 312.776C26.46 313.048 26.156 313.44 25.932 313.952C25.708 314.464 25.596 315.08 25.596 315.8C25.596 316.52 25.708 317.14 25.932 317.66C26.156 318.172 26.46 318.568 26.844 318.848C27.228 319.12 27.668 319.256 28.164 319.256Z" fill="#768396"/>
<path d="M71 96H843" stroke="#E7EBEC"/>
<path d="M69 151L843 151" stroke="#E7EBEC"/>
<path d="M69 206L843 206" stroke="#E7EBEC"/>
<path d="M69 261L843 261" stroke="#E7EBEC"/>
<path d="M73 316H843" stroke="#E7EBEC"/>
<path d="M69 286.993C73.7027 287.159 85.0541 284.593 92.8378 272.994C102.568 258.495 117.162 224.498 141.486 225.498C165.811 226.498 174.081 252.995 200.351 260.995C226.622 268.994 229.054 245.996 233.919 229.497C238.784 212.999 249.486 162.003 253.865 147.005C258.243 132.006 265.541 103.508 281.108 103.008C296.676 102.508 307.865 124.507 309.811 128.006C311.757 131.506 321.486 155.504 331.703 167.503C341.919 179.502 359.919 171.502 371.595 184.001C383.27 196.5 400.784 228.497 423.162 225.498C445.541 222.498 452.838 210.499 456.73 206.499C460.622 202.5 476.189 185.001 494.676 189.501C513.162 194 518.514 205.999 521.919 211.499C525.324 216.998 538.459 248.996 560.351 249.996C582.243 250.995 593.919 209.999 597.324 200C600.73 190.001 608.514 166.503 619.216 156.504C629.919 146.505 638.676 157.504 653.757 146.005C668.838 134.506 673.703 122.507 690.243 117.007C706.784 111.508 718.459 119.007 725.27 128.006C732.081 137.005 743.27 160.003 754.459 170.002C765.649 180.002 775.865 173.502 781.703 179.502C787.541 185.501 795.324 191.501 807.486 235.497C819.649 279.493 830.838 285.992 843 286.992" stroke="#4BA8A8" stroke-width="2"/>
<path d="M69 307.189C74.0239 307.022 85.5302 304.789 91.3643 297.189C98.657 287.689 111.298 267.689 121.994 260.689C132.69 253.689 140.469 260.189 152.137 252.189C163.805 244.189 174.501 224.689 178.391 216.689C182.28 208.689 189.087 196.189 202.214 190.689C215.34 185.189 218.258 193.689 231.871 181.189C245.484 168.689 254.235 149.189 269.307 144.689C284.378 140.189 294.588 145.189 300.908 153.689C307.229 162.189 317.925 184.689 324.731 195.189C331.538 205.689 336.399 213.689 350.499 215.189C364.598 216.689 379.67 207.689 386.962 203.189C394.255 198.689 413.216 187.189 428.774 195.189C444.332 203.189 450.652 227.689 454.541 239.689C458.431 251.689 467.668 295.689 494.408 298.189C521.148 300.689 533.303 273.189 568.308 279.189C603.313 285.189 597.479 301.189 634.915 301.689C672.35 302.189 663.113 271.189 699.09 265.189C735.068 259.189 741.388 221.689 771.531 222.689C801.675 223.689 801.675 257.189 843 260.189" stroke="#F8B400" stroke-width="2"/>
<circle cx="812.5" cy="249.5" r="4.5" fill="#F8B400" stroke="white" stroke-width="2"/>
<circle cx="749.5" cy="230.5" r="4.5" fill="#F8B400" stroke="white" stroke-width="2"/>
<circle cx="673.5" cy="279.5" r="4.5" fill="#F8B400" stroke="white" stroke-width="2"/>
<circle cx="590.5" cy="285.5" r="4.5" fill="#F8B400" stroke="white" stroke-width="2"/>
<circle cx="506.5" cy="297.5" r="4.5" fill="#F8B400" stroke="white" stroke-width="2"/>
<circle cx="426.5" cy="192.5" r="4.5" fill="#F8B400" stroke="white" stroke-width="2"/>
<circle cx="345.5" cy="212.5" r="4.5" fill="#F8B400" stroke="white" stroke-width="2"/>
<circle cx="265.5" cy="148.5" r="4.5" fill="#F8B400" stroke="white" stroke-width="2"/>
<circle cx="184.5" cy="207.5" r="4.5" fill="#F8B400" stroke="white" stroke-width="2"/>
<circle cx="99.5" cy="287.5" r="4.5" fill="#F8B400" stroke="white" stroke-width="2"/>
<circle cx="98.5" cy="265.5" r="4.5" fill="#4BA8A8" stroke="white" stroke-width="2"/>
<circle cx="183.5" cy="251.5" r="4.5" fill="#4BA8A8" stroke="white" stroke-width="2"/>
<circle cx="297.5" cy="110.5" r="4.5" fill="#4BA8A8" stroke="white" stroke-width="2"/>
<circle cx="346.5" cy="174.5" r="4.5" fill="#4BA8A8" stroke="white" stroke-width="2"/>
<circle cx="426.5" cy="224.5" r="4.5" fill="#4BA8A8" stroke="white" stroke-width="2"/>
<circle cx="506.5" cy="193.5" r="4.5" fill="#4BA8A8" stroke="white" stroke-width="2"/>
<circle cx="589.5" cy="221.5" r="4.5" fill="#4BA8A8" stroke="white" stroke-width="2"/>
<circle cx="664.5" cy="137.5" r="4.5" fill="#4BA8A8" stroke="white" stroke-width="2"/>
<circle cx="746.5" cy="160.5" r="4.5" fill="#4BA8A8" stroke="white" stroke-width="2"/>
<circle cx="805.5" cy="228.5" r="4.5" fill="#4BA8A8" stroke="white" stroke-width="2"/>
<path d="M74.888 342V333.6H76.064L79.088 339.456L82.088 333.6H83.276V342H82.268V335.4L79.46 340.8H78.704L75.896 335.412V342H74.888ZM86.9682 342.144C86.4722 342.144 86.0602 342.06 85.7322 341.892C85.4042 341.724 85.1602 341.5 85.0002 341.22C84.8402 340.94 84.7602 340.636 84.7602 340.308C84.7602 339.7 84.9922 339.232 85.4562 338.904C85.9202 338.576 86.5522 338.412 87.3522 338.412H88.9602V338.34C88.9602 337.82 88.8242 337.428 88.5522 337.164C88.2802 336.892 87.9162 336.756 87.4602 336.756C87.0682 336.756 86.7282 336.856 86.4402 337.056C86.1602 337.248 85.9842 337.532 85.9122 337.908H84.8802C84.9202 337.476 85.0642 337.112 85.3122 336.816C85.5682 336.52 85.8842 336.296 86.2602 336.144C86.6362 335.984 87.0362 335.904 87.4602 335.904C88.2922 335.904 88.9162 336.128 89.3322 336.576C89.7562 337.016 89.9682 337.604 89.9682 338.34V342H89.0682L89.0082 340.932C88.8402 341.268 88.5922 341.556 88.2642 341.796C87.9442 342.028 87.5122 342.144 86.9682 342.144ZM87.1242 341.292C87.5082 341.292 87.8362 341.192 88.1082 340.992C88.3882 340.792 88.6002 340.532 88.7442 340.212C88.8882 339.892 88.9602 339.556 88.9602 339.204V339.192H87.4362C86.8442 339.192 86.4242 339.296 86.1762 339.504C85.9362 339.704 85.8162 339.956 85.8162 340.26C85.8162 340.572 85.9282 340.824 86.1522 341.016C86.3842 341.2 86.7082 341.292 87.1242 341.292ZM91.9526 344.64L93.4286 341.424H93.0806L90.7166 336.048H91.8086L93.7766 340.68L95.8646 336.048H96.9086L93.0086 344.64H91.9526Z" fill="#768396"/>
<path d="M467.888 342V333.6H468.896L473.372 340.332V333.6H474.38V342H473.372L468.896 335.268V342H467.888ZM478.813 342.144C478.253 342.144 477.749 342.016 477.301 341.76C476.853 341.504 476.497 341.144 476.233 340.68C475.977 340.208 475.849 339.656 475.849 339.024C475.849 338.392 475.981 337.844 476.245 337.38C476.509 336.908 476.865 336.544 477.313 336.288C477.769 336.032 478.277 335.904 478.837 335.904C479.397 335.904 479.901 336.032 480.349 336.288C480.797 336.544 481.149 336.908 481.405 337.38C481.669 337.844 481.801 338.392 481.801 339.024C481.801 339.656 481.669 340.208 481.405 340.68C481.141 341.144 480.781 341.504 480.325 341.76C479.877 342.016 479.373 342.144 478.813 342.144ZM478.813 341.28C479.157 341.28 479.477 341.196 479.773 341.028C480.069 340.86 480.309 340.608 480.493 340.272C480.677 339.936 480.769 339.52 480.769 339.024C480.769 338.528 480.677 338.112 480.493 337.776C480.317 337.44 480.081 337.188 479.785 337.02C479.489 336.852 479.173 336.768 478.837 336.768C478.493 336.768 478.173 336.852 477.877 337.02C477.581 337.188 477.341 337.44 477.157 337.776C476.973 338.112 476.881 338.528 476.881 339.024C476.881 339.52 476.973 339.936 477.157 340.272C477.341 340.608 477.577 340.86 477.865 341.028C478.161 341.196 478.477 341.28 478.813 341.28ZM484.614 342L482.358 336.048H483.414L485.202 341.028L487.002 336.048H488.034L485.778 342H484.614Z" fill="#768396"/>
<path d="M142.76 342.144C142 342.144 141.404 341.932 140.972 341.508C140.54 341.084 140.324 340.496 140.324 339.744H141.344C141.344 340.168 141.448 340.524 141.656 340.812C141.864 341.1 142.228 341.244 142.748 341.244C143.252 341.244 143.6 341.104 143.792 340.824C143.992 340.544 144.092 340.196 144.092 339.78V333.6H145.1V339.78C145.1 340.524 144.892 341.104 144.476 341.52C144.068 341.936 143.496 342.144 142.76 342.144ZM148.988 342.144C148.284 342.144 147.724 341.932 147.308 341.508C146.892 341.076 146.684 340.416 146.684 339.528V336.048H147.692V339.42C147.692 340.66 148.2 341.28 149.216 341.28C149.736 341.28 150.164 341.096 150.5 340.728C150.844 340.352 151.016 339.82 151.016 339.132V336.048H152.024V342H151.112L151.04 340.932C150.856 341.308 150.58 341.604 150.212 341.82C149.852 342.036 149.444 342.144 148.988 342.144ZM153.683 342V336.048H154.595L154.655 337.116C154.847 336.74 155.123 336.444 155.483 336.228C155.843 336.012 156.251 335.904 156.707 335.904C157.411 335.904 157.971 336.12 158.387 336.552C158.811 336.976 159.023 337.632 159.023 338.52V342H158.015V338.628C158.015 337.388 157.503 336.768 156.479 336.768C155.967 336.768 155.539 336.956 155.195 337.332C154.859 337.7 154.691 338.228 154.691 338.916V342H153.683Z" fill="#768396"/>
<path d="M533.888 342V333.6H536.468C537.948 333.6 539.036 333.976 539.732 334.728C540.436 335.48 540.788 336.512 540.788 337.824C540.788 339.112 540.436 340.132 539.732 340.884C539.036 341.628 537.948 342 536.468 342H533.888ZM534.896 341.16H536.444C537.26 341.16 537.908 341.028 538.388 340.764C538.876 340.492 539.224 340.108 539.432 339.612C539.64 339.108 539.744 338.512 539.744 337.824C539.744 337.12 539.64 336.516 539.432 336.012C539.224 335.508 538.876 335.12 538.388 334.848C537.908 334.576 537.26 334.44 536.444 334.44H534.896V341.16ZM544.859 342.144C544.291 342.144 543.787 342.016 543.347 341.76C542.907 341.496 542.559 341.132 542.303 340.668C542.055 340.204 541.931 339.656 541.931 339.024C541.931 338.4 542.055 337.856 542.303 337.392C542.551 336.92 542.895 336.556 543.335 336.3C543.783 336.036 544.299 335.904 544.883 335.904C545.459 335.904 545.955 336.036 546.371 336.3C546.795 336.556 547.119 336.896 547.343 337.32C547.567 337.744 547.679 338.2 547.679 338.688C547.679 338.776 547.675 338.864 547.667 338.952C547.667 339.04 547.667 339.14 547.667 339.252H542.927C542.951 339.708 543.055 340.088 543.239 340.392C543.431 340.688 543.667 340.912 543.947 341.064C544.235 341.216 544.539 341.292 544.859 341.292C545.275 341.292 545.623 341.196 545.903 341.004C546.183 340.812 546.387 340.552 546.515 340.224H547.511C547.351 340.776 547.043 341.236 546.587 341.604C546.139 341.964 545.563 342.144 544.859 342.144ZM544.859 336.756C544.379 336.756 543.951 336.904 543.575 337.2C543.207 337.488 542.995 337.912 542.939 338.472H546.683C546.659 337.936 546.475 337.516 546.131 337.212C545.787 336.908 545.363 336.756 544.859 336.756ZM551.752 342.144C551.184 342.144 550.672 342.016 550.216 341.76C549.768 341.496 549.412 341.132 549.148 340.668C548.892 340.196 548.764 339.648 548.764 339.024C548.764 338.4 548.892 337.856 549.148 337.392C549.412 336.92 549.768 336.556 550.216 336.3C550.672 336.036 551.184 335.904 551.752 335.904C552.456 335.904 553.048 336.088 553.528 336.456C554.016 336.824 554.324 337.316 554.452 337.932H553.42C553.34 337.564 553.144 337.28 552.832 337.08C552.52 336.872 552.156 336.768 551.74 336.768C551.404 336.768 551.088 336.852 550.792 337.02C550.496 337.188 550.256 337.44 550.072 337.776C549.888 338.112 549.796 338.528 549.796 339.024C549.796 339.52 549.888 339.936 550.072 340.272C550.256 340.608 550.496 340.864 550.792 341.04C551.088 341.208 551.404 341.292 551.74 341.292C552.156 341.292 552.52 341.192 552.832 340.992C553.144 340.784 553.34 340.492 553.42 340.116H554.452C554.332 340.716 554.028 341.204 553.54 341.58C553.052 341.956 552.456 342.144 551.752 342.144Z" fill="#768396"/>
<path d="M210.76 342.144C210 342.144 209.404 341.932 208.972 341.508C208.54 341.084 208.324 340.496 208.324 339.744H209.344C209.344 340.168 209.448 340.524 209.656 340.812C209.864 341.1 210.228 341.244 210.748 341.244C211.252 341.244 211.6 341.104 211.792 340.824C211.992 340.544 212.092 340.196 212.092 339.78V333.6H213.1V339.78C213.1 340.524 212.892 341.104 212.476 341.52C212.068 341.936 211.496 342.144 210.76 342.144ZM216.988 342.144C216.284 342.144 215.724 341.932 215.308 341.508C214.892 341.076 214.684 340.416 214.684 339.528V336.048H215.692V339.42C215.692 340.66 216.2 341.28 217.216 341.28C217.736 341.28 218.164 341.096 218.5 340.728C218.844 340.352 219.016 339.82 219.016 339.132V336.048H220.024V342H219.112L219.04 340.932C218.856 341.308 218.58 341.604 218.212 341.82C217.852 342.036 217.444 342.144 216.988 342.144ZM221.683 342V333.36H222.691V342H221.683Z" fill="#768396"/>
<path d="M603.76 342.144C603 342.144 602.404 341.932 601.972 341.508C601.54 341.084 601.324 340.496 601.324 339.744H602.344C602.344 340.168 602.448 340.524 602.656 340.812C602.864 341.1 603.228 341.244 603.748 341.244C604.252 341.244 604.6 341.104 604.792 340.824C604.992 340.544 605.092 340.196 605.092 339.78V333.6H606.1V339.78C606.1 340.524 605.892 341.104 605.476 341.52C605.068 341.936 604.496 342.144 603.76 342.144ZM609.796 342.144C609.3 342.144 608.888 342.06 608.56 341.892C608.232 341.724 607.988 341.5 607.828 341.22C607.668 340.94 607.588 340.636 607.588 340.308C607.588 339.7 607.82 339.232 608.284 338.904C608.748 338.576 609.38 338.412 610.18 338.412H611.788V338.34C611.788 337.82 611.652 337.428 611.38 337.164C611.108 336.892 610.744 336.756 610.288 336.756C609.896 336.756 609.556 336.856 609.268 337.056C608.988 337.248 608.812 337.532 608.74 337.908H607.708C607.748 337.476 607.892 337.112 608.14 336.816C608.396 336.52 608.712 336.296 609.088 336.144C609.464 335.984 609.864 335.904 610.288 335.904C611.12 335.904 611.744 336.128 612.16 336.576C612.584 337.016 612.796 337.604 612.796 338.34V342H611.896L611.836 340.932C611.668 341.268 611.42 341.556 611.092 341.796C610.772 342.028 610.34 342.144 609.796 342.144ZM609.952 341.292C610.336 341.292 610.664 341.192 610.936 340.992C611.216 340.792 611.428 340.532 611.572 340.212C611.716 339.892 611.788 339.556 611.788 339.204V339.192H610.264C609.672 339.192 609.252 339.296 609.004 339.504C608.764 339.704 608.644 339.956 608.644 340.26C608.644 340.572 608.756 340.824 608.98 341.016C609.212 341.2 609.536 341.292 609.952 341.292ZM614.308 342V336.048H615.22L615.28 337.116C615.472 336.74 615.748 336.444 616.108 336.228C616.468 336.012 616.876 335.904 617.332 335.904C618.036 335.904 618.596 336.12 619.012 336.552C619.436 336.976 619.648 337.632 619.648 338.52V342H618.64V338.628C618.64 337.388 618.128 336.768 617.104 336.768C616.592 336.768 616.164 336.956 615.82 337.332C615.484 337.7 615.316 338.228 615.316 338.916V342H614.308Z" fill="#768396"/>
<path d="M272.36 342L275.456 333.6H276.524L279.608 342H278.54L277.772 339.84H274.196L273.416 342H272.36ZM274.496 339.024H277.472L275.984 334.872L274.496 339.024ZM282.84 342.144C282.136 342.144 281.576 341.932 281.16 341.508C280.744 341.076 280.536 340.416 280.536 339.528V336.048H281.544V339.42C281.544 340.66 282.052 341.28 283.068 341.28C283.588 341.28 284.016 341.096 284.352 340.728C284.696 340.352 284.868 339.82 284.868 339.132V336.048H285.876V342H284.964L284.892 340.932C284.708 341.308 284.432 341.604 284.064 341.82C283.704 342.036 283.296 342.144 282.84 342.144ZM289.887 340.128C289.551 340.128 289.243 340.084 288.963 339.996L288.363 340.56C288.451 340.624 288.559 340.68 288.687 340.728C288.823 340.768 289.015 340.808 289.263 340.848C289.511 340.88 289.859 340.916 290.307 340.956C291.107 341.012 291.679 341.196 292.023 341.508C292.367 341.82 292.539 342.228 292.539 342.732C292.539 343.076 292.443 343.404 292.251 343.716C292.067 344.028 291.779 344.284 291.387 344.484C291.003 344.684 290.507 344.784 289.899 344.784C289.363 344.784 288.887 344.712 288.471 344.568C288.055 344.432 287.731 344.22 287.499 343.932C287.267 343.652 287.151 343.296 287.151 342.864C287.151 342.64 287.211 342.396 287.331 342.132C287.451 341.876 287.675 341.632 288.003 341.4C287.827 341.328 287.675 341.252 287.547 341.172C287.427 341.084 287.315 340.988 287.211 340.884V340.608L288.231 339.6C287.759 339.2 287.523 338.672 287.523 338.016C287.523 337.624 287.615 337.268 287.799 336.948C287.983 336.628 288.251 336.376 288.603 336.192C288.955 336 289.383 335.904 289.887 335.904C290.231 335.904 290.543 335.952 290.823 336.048H293.019V336.804L291.903 336.852C292.135 337.188 292.251 337.576 292.251 338.016C292.251 338.408 292.155 338.764 291.963 339.084C291.779 339.404 291.511 339.66 291.159 339.852C290.815 340.036 290.391 340.128 289.887 340.128ZM289.887 339.3C290.311 339.3 290.647 339.192 290.895 338.976C291.151 338.752 291.279 338.432 291.279 338.016C291.279 337.608 291.151 337.296 290.895 337.08C290.647 336.856 290.311 336.744 289.887 336.744C289.455 336.744 289.111 336.856 288.855 337.08C288.607 337.296 288.483 337.608 288.483 338.016C288.483 338.432 288.607 338.752 288.855 338.976C289.111 339.192 289.455 339.3 289.887 339.3ZM288.135 342.768C288.135 343.168 288.303 343.464 288.639 343.656C288.975 343.856 289.395 343.956 289.899 343.956C290.395 343.956 290.791 343.848 291.087 343.632C291.391 343.416 291.543 343.128 291.543 342.768C291.543 342.512 291.439 342.288 291.231 342.096C291.023 341.912 290.639 341.804 290.079 341.772C289.639 341.74 289.259 341.7 288.939 341.652C288.611 341.828 288.395 342.016 288.291 342.216C288.187 342.424 288.135 342.608 288.135 342.768Z" fill="#768396"/>
<path d="M665.888 342V333.6H671V334.428H666.896V337.38H670.388V338.196H666.896V342H665.888ZM674.656 342.144C674.088 342.144 673.584 342.016 673.144 341.76C672.704 341.496 672.356 341.132 672.1 340.668C671.852 340.204 671.728 339.656 671.728 339.024C671.728 338.4 671.852 337.856 672.1 337.392C672.348 336.92 672.692 336.556 673.132 336.3C673.58 336.036 674.096 335.904 674.68 335.904C675.256 335.904 675.752 336.036 676.168 336.3C676.592 336.556 676.916 336.896 677.14 337.32C677.364 337.744 677.476 338.2 677.476 338.688C677.476 338.776 677.472 338.864 677.464 338.952C677.464 339.04 677.464 339.14 677.464 339.252H672.724C672.748 339.708 672.852 340.088 673.036 340.392C673.228 340.688 673.464 340.912 673.744 341.064C674.032 341.216 674.336 341.292 674.656 341.292C675.072 341.292 675.42 341.196 675.7 341.004C675.98 340.812 676.184 340.552 676.312 340.224H677.308C677.148 340.776 676.84 341.236 676.384 341.604C675.936 341.964 675.36 342.144 674.656 342.144ZM674.656 336.756C674.176 336.756 673.748 336.904 673.372 337.2C673.004 337.488 672.792 337.912 672.736 338.472H676.48C676.456 337.936 676.272 337.516 675.928 337.212C675.584 336.908 675.16 336.756 674.656 336.756ZM681.992 342.144C681.504 342.144 681.068 342.044 680.684 341.844C680.308 341.644 680.02 341.364 679.82 341.004L679.724 342H678.812V333.36H679.82V337.032C680.012 336.744 680.284 336.484 680.636 336.252C680.996 336.02 681.452 335.904 682.004 335.904C682.596 335.904 683.112 336.04 683.552 336.312C683.992 336.584 684.332 336.956 684.572 337.428C684.82 337.9 684.944 338.436 684.944 339.036C684.944 339.636 684.82 340.172 684.572 340.644C684.332 341.108 683.988 341.476 683.54 341.748C683.1 342.012 682.584 342.144 681.992 342.144ZM681.884 341.268C682.284 341.268 682.636 341.176 682.94 340.992C683.244 340.8 683.484 340.536 683.66 340.2C683.836 339.864 683.924 339.472 683.924 339.024C683.924 338.576 683.836 338.184 683.66 337.848C683.484 337.512 683.244 337.252 682.94 337.068C682.636 336.876 682.284 336.78 681.884 336.78C681.484 336.78 681.132 336.876 680.828 337.068C680.524 337.252 680.284 337.512 680.108 337.848C679.932 338.184 679.844 338.576 679.844 339.024C679.844 339.472 679.932 339.864 680.108 340.2C680.284 340.536 680.524 340.8 680.828 340.992C681.132 341.176 681.484 341.268 681.884 341.268Z" fill="#768396"/>
<path d="M341.564 342.144C340.948 342.144 340.412 342.032 339.956 341.808C339.5 341.584 339.148 341.272 338.9 340.872C338.652 340.472 338.528 340.008 338.528 339.48H339.584C339.584 339.808 339.66 340.112 339.812 340.392C339.964 340.664 340.184 340.884 340.472 341.052C340.768 341.212 341.132 341.292 341.564 341.292C342.132 341.292 342.572 341.156 342.884 340.884C343.196 340.612 343.352 340.272 343.352 339.864C343.352 339.528 343.28 339.26 343.136 339.06C342.992 338.852 342.796 338.684 342.548 338.556C342.308 338.428 342.028 338.316 341.708 338.22C341.396 338.124 341.068 338.016 340.724 337.896C340.076 337.672 339.596 337.396 339.284 337.068C338.972 336.732 338.816 336.296 338.816 335.76C338.808 335.312 338.912 334.916 339.128 334.572C339.344 334.22 339.648 333.948 340.04 333.756C340.44 333.556 340.912 333.456 341.456 333.456C341.992 333.456 342.456 333.556 342.848 333.756C343.248 333.956 343.556 334.232 343.772 334.584C343.996 334.936 344.112 335.336 344.12 335.784H343.064C343.064 335.552 343.004 335.324 342.884 335.1C342.764 334.868 342.58 334.68 342.332 334.536C342.092 334.392 341.788 334.32 341.42 334.32C340.964 334.312 340.588 334.428 340.292 334.668C340.004 334.908 339.86 335.24 339.86 335.664C339.86 336.024 339.96 336.3 340.16 336.492C340.368 336.684 340.656 336.844 341.024 336.972C341.392 337.092 341.816 337.232 342.296 337.392C342.696 337.536 343.056 337.704 343.376 337.896C343.696 338.088 343.944 338.336 344.12 338.64C344.304 338.944 344.396 339.332 344.396 339.804C344.396 340.204 344.292 340.584 344.084 340.944C343.876 341.296 343.56 341.584 343.136 341.808C342.72 342.032 342.196 342.144 341.564 342.144ZM348.442 342.144C347.874 342.144 347.37 342.016 346.93 341.76C346.49 341.496 346.142 341.132 345.886 340.668C345.638 340.204 345.514 339.656 345.514 339.024C345.514 338.4 345.638 337.856 345.886 337.392C346.134 336.92 346.478 336.556 346.918 336.3C347.366 336.036 347.882 335.904 348.465 335.904C349.042 335.904 349.538 336.036 349.954 336.3C350.378 336.556 350.702 336.896 350.926 337.32C351.15 337.744 351.262 338.2 351.262 338.688C351.262 338.776 351.258 338.864 351.25 338.952C351.25 339.04 351.25 339.14 351.25 339.252H346.51C346.534 339.708 346.638 340.088 346.822 340.392C347.014 340.688 347.25 340.912 347.53 341.064C347.818 341.216 348.122 341.292 348.442 341.292C348.858 341.292 349.206 341.196 349.486 341.004C349.766 340.812 349.97 340.552 350.098 340.224H351.094C350.934 340.776 350.626 341.236 350.17 341.604C349.722 341.964 349.146 342.144 348.442 342.144ZM348.442 336.756C347.962 336.756 347.534 336.904 347.158 337.2C346.79 337.488 346.578 337.912 346.521 338.472H350.266C350.242 337.936 350.058 337.516 349.714 337.212C349.37 336.908 348.946 336.756 348.442 336.756ZM352.598 344.64V336.048H353.51L353.606 337.032C353.798 336.744 354.07 336.484 354.422 336.252C354.782 336.02 355.238 335.904 355.79 335.904C356.382 335.904 356.898 336.04 357.338 336.312C357.778 336.584 358.118 336.956 358.358 337.428C358.606 337.9 358.73 338.436 358.73 339.036C358.73 339.636 358.606 340.172 358.358 340.644C358.118 341.108 357.774 341.476 357.326 341.748C356.886 342.012 356.37 342.144 355.778 342.144C355.29 342.144 354.854 342.044 354.47 341.844C354.094 341.644 353.806 341.364 353.606 341.004V344.64H352.598ZM355.67 341.268C356.07 341.268 356.422 341.176 356.726 340.992C357.03 340.8 357.27 340.536 357.446 340.2C357.622 339.864 357.71 339.472 357.71 339.024C357.71 338.576 357.622 338.184 357.446 337.848C357.27 337.512 357.03 337.252 356.726 337.068C356.422 336.876 356.07 336.78 355.67 336.78C355.27 336.78 354.918 336.876 354.614 337.068C354.31 337.252 354.07 337.512 353.894 337.848C353.718 338.184 353.63 338.576 353.63 339.024C353.63 339.472 353.718 339.864 353.894 340.2C354.07 340.536 354.31 340.8 354.614 340.992C354.918 341.176 355.27 341.268 355.67 341.268Z" fill="#768396"/>
<path d="M731.888 342V333.6H733.064L736.088 339.456L739.088 333.6H740.276V342H739.268V335.4L736.46 340.8H735.704L732.896 335.412V342H731.888ZM743.968 342.144C743.472 342.144 743.06 342.06 742.732 341.892C742.404 341.724 742.16 341.5 742 341.22C741.84 340.94 741.76 340.636 741.76 340.308C741.76 339.7 741.992 339.232 742.456 338.904C742.92 338.576 743.552 338.412 744.352 338.412H745.96V338.34C745.96 337.82 745.824 337.428 745.552 337.164C745.28 336.892 744.916 336.756 744.46 336.756C744.068 336.756 743.728 336.856 743.44 337.056C743.16 337.248 742.984 337.532 742.912 337.908H741.88C741.92 337.476 742.064 337.112 742.312 336.816C742.568 336.52 742.884 336.296 743.26 336.144C743.636 335.984 744.036 335.904 744.46 335.904C745.292 335.904 745.916 336.128 746.332 336.576C746.756 337.016 746.968 337.604 746.968 338.34V342H746.068L746.008 340.932C745.84 341.268 745.592 341.556 745.264 341.796C744.944 342.028 744.512 342.144 743.968 342.144ZM744.124 341.292C744.508 341.292 744.836 341.192 745.108 340.992C745.388 340.792 745.6 340.532 745.744 340.212C745.888 339.892 745.96 339.556 745.96 339.204V339.192H744.436C743.844 339.192 743.424 339.296 743.176 339.504C742.936 339.704 742.816 339.956 742.816 340.26C742.816 340.572 742.928 340.824 743.152 341.016C743.384 341.2 743.708 341.292 744.124 341.292ZM748.48 342V336.048H749.392L749.476 337.188C749.66 336.796 749.94 336.484 750.316 336.252C750.692 336.02 751.156 335.904 751.708 335.904V336.96H751.432C751.08 336.96 750.756 337.024 750.46 337.152C750.164 337.272 749.928 337.48 749.752 337.776C749.576 338.072 749.488 338.48 749.488 339V342H748.48Z" fill="#768396"/>
<path d="M408.704 342.144C407.88 342.144 407.156 341.964 406.532 341.604C405.916 341.236 405.432 340.724 405.08 340.068C404.736 339.412 404.564 338.656 404.564 337.8C404.564 336.944 404.736 336.192 405.08 335.544C405.432 334.888 405.916 334.376 406.532 334.008C407.156 333.64 407.88 333.456 408.704 333.456C409.536 333.456 410.26 333.64 410.876 334.008C411.5 334.376 411.984 334.888 412.328 335.544C412.672 336.192 412.844 336.944 412.844 337.8C412.844 338.656 412.672 339.412 412.328 340.068C411.984 340.724 411.5 341.236 410.876 341.604C410.26 341.964 409.536 342.144 408.704 342.144ZM408.704 341.256C409.32 341.256 409.86 341.12 410.324 340.848C410.796 340.568 411.16 340.172 411.416 339.66C411.68 339.14 411.812 338.52 411.812 337.8C411.812 337.08 411.68 336.464 411.416 335.952C411.16 335.44 410.796 335.048 410.324 334.776C409.86 334.496 409.32 334.356 408.704 334.356C408.088 334.356 407.544 334.496 407.072 334.776C406.608 335.048 406.244 335.44 405.98 335.952C405.724 336.464 405.596 337.08 405.596 337.8C405.596 338.52 405.724 339.14 405.98 339.66C406.244 340.172 406.608 340.568 407.072 340.848C407.544 341.12 408.088 341.256 408.704 341.256ZM416.974 342.144C416.406 342.144 415.894 342.016 415.438 341.76C414.99 341.496 414.634 341.132 414.37 340.668C414.114 340.196 413.986 339.648 413.986 339.024C413.986 338.4 414.114 337.856 414.37 337.392C414.634 336.92 414.99 336.556 415.438 336.3C415.894 336.036 416.406 335.904 416.974 335.904C417.678 335.904 418.27 336.088 418.75 336.456C419.238 336.824 419.546 337.316 419.674 337.932H418.642C418.562 337.564 418.366 337.28 418.054 337.08C417.742 336.872 417.378 336.768 416.962 336.768C416.626 336.768 416.31 336.852 416.014 337.02C415.718 337.188 415.478 337.44 415.294 337.776C415.11 338.112 415.018 338.528 415.018 339.024C415.018 339.52 415.11 339.936 415.294 340.272C415.478 340.608 415.718 340.864 416.014 341.04C416.31 341.208 416.626 341.292 416.962 341.292C417.378 341.292 417.742 341.192 418.054 340.992C418.366 340.784 418.562 340.492 418.642 340.116H419.674C419.554 340.716 419.25 341.204 418.762 341.58C418.274 341.956 417.678 342.144 416.974 342.144ZM423.27 342C422.726 342 422.298 341.868 421.986 341.604C421.674 341.34 421.518 340.864 421.518 340.176V336.9H420.486V336.048H421.518L421.65 334.62H422.526V336.048H424.278V336.9H422.526V340.176C422.526 340.552 422.602 340.808 422.754 340.944C422.906 341.072 423.174 341.136 423.558 341.136H424.182V342H423.27Z" fill="#768396"/>
<path d="M797.36 342L800.456 333.6H801.524L804.608 342H803.54L802.772 339.84H799.196L798.416 342H797.36ZM799.496 339.024H802.472L800.984 334.872L799.496 339.024ZM805.797 344.64V336.048H806.709L806.805 337.032C806.997 336.744 807.269 336.484 807.621 336.252C807.981 336.02 808.437 335.904 808.989 335.904C809.581 335.904 810.097 336.04 810.537 336.312C810.977 336.584 811.317 336.956 811.557 337.428C811.805 337.9 811.929 338.436 811.929 339.036C811.929 339.636 811.805 340.172 811.557 340.644C811.317 341.108 810.973 341.476 810.525 341.748C810.085 342.012 809.569 342.144 808.977 342.144C808.489 342.144 808.053 342.044 807.669 341.844C807.293 341.644 807.005 341.364 806.805 341.004V344.64H805.797ZM808.869 341.268C809.269 341.268 809.621 341.176 809.925 340.992C810.229 340.8 810.469 340.536 810.645 340.2C810.821 339.864 810.909 339.472 810.909 339.024C810.909 338.576 810.821 338.184 810.645 337.848C810.469 337.512 810.229 337.252 809.925 337.068C809.621 336.876 809.269 336.78 808.869 336.78C808.469 336.78 808.117 336.876 807.813 337.068C807.509 337.252 807.269 337.512 807.093 337.848C806.917 338.184 806.829 338.576 806.829 339.024C806.829 339.472 806.917 339.864 807.093 340.2C807.269 340.536 807.509 340.8 807.813 340.992C808.117 341.176 808.469 341.268 808.869 341.268ZM813.332 342V336.048H814.244L814.328 337.188C814.512 336.796 814.792 336.484 815.168 336.252C815.544 336.02 816.008 335.904 816.56 335.904V336.96H816.284C815.932 336.96 815.608 337.024 815.312 337.152C815.016 337.272 814.78 337.48 814.604 337.776C814.428 338.072 814.34 338.48 814.34 339V342H813.332Z" fill="#768396"/>
<path d="M29.544 48V33.672H24.648V31.2H37.536V33.672H32.616V48H29.544ZM41.8046 48.288C40.7806 48.288 39.9406 48.128 39.2846 47.808C38.6286 47.472 38.1406 47.032 37.8206 46.488C37.5006 45.944 37.3406 45.344 37.3406 44.688C37.3406 43.584 37.7726 42.688 38.6366 42C39.5006 41.312 40.7966 40.968 42.5246 40.968H45.5486V40.68C45.5486 39.864 45.3166 39.264 44.8526 38.88C44.3886 38.496 43.8126 38.304 43.1246 38.304C42.5006 38.304 41.9566 38.456 41.4926 38.76C41.0286 39.048 40.7406 39.48 40.6286 40.056H37.6286C37.7086 39.192 37.9966 38.44 38.4926 37.8C39.0046 37.16 39.6606 36.672 40.4606 36.336C41.2606 35.984 42.1566 35.808 43.1486 35.808C44.8446 35.808 46.1806 36.232 47.1566 37.08C48.1326 37.928 48.6206 39.128 48.6206 40.68V48H46.0046L45.7166 46.08C45.3646 46.72 44.8686 47.248 44.2286 47.664C43.6046 48.08 42.7966 48.288 41.8046 48.288ZM42.5006 45.888C43.3806 45.888 44.0606 45.6 44.5406 45.024C45.0366 44.448 45.3486 43.736 45.4766 42.888H42.8606C42.0446 42.888 41.4606 43.04 41.1086 43.344C40.7566 43.632 40.5806 43.992 40.5806 44.424C40.5806 44.888 40.7566 45.248 41.1086 45.504C41.4606 45.76 41.9246 45.888 42.5006 45.888ZM56.4722 48.288C55.4162 48.288 54.4882 48.12 53.6882 47.784C52.8882 47.432 52.2482 46.952 51.7682 46.344C51.2882 45.736 51.0002 45.032 50.9042 44.232H54.0002C54.0962 44.696 54.3522 45.096 54.7682 45.432C55.2002 45.752 55.7522 45.912 56.4242 45.912C57.0962 45.912 57.5842 45.776 57.8882 45.504C58.2082 45.232 58.3682 44.92 58.3682 44.568C58.3682 44.056 58.1442 43.712 57.6962 43.536C57.2482 43.344 56.6242 43.16 55.8242 42.984C55.3122 42.872 54.7922 42.736 54.2642 42.576C53.7362 42.416 53.2482 42.216 52.8002 41.976C52.3682 41.72 52.0162 41.4 51.7442 41.016C51.4722 40.616 51.3362 40.128 51.3362 39.552C51.3362 38.496 51.7522 37.608 52.5842 36.888C53.4322 36.168 54.6162 35.808 56.1362 35.808C57.5442 35.808 58.6642 36.136 59.4962 36.792C60.3442 37.448 60.8482 38.352 61.0082 39.504H58.1042C57.9282 38.624 57.2642 38.184 56.1122 38.184C55.5362 38.184 55.0882 38.296 54.7682 38.52C54.4642 38.744 54.3122 39.024 54.3122 39.36C54.3122 39.712 54.5442 39.992 55.0082 40.2C55.4722 40.408 56.0882 40.6 56.8562 40.776C57.6882 40.968 58.4482 41.184 59.1362 41.424C59.8402 41.648 60.4002 41.992 60.8162 42.456C61.2322 42.904 61.4402 43.552 61.4402 44.4C61.4562 45.136 61.2642 45.8 60.8642 46.392C60.4642 46.984 59.8882 47.448 59.1362 47.784C58.3842 48.12 57.4962 48.288 56.4722 48.288ZM64.1616 48V30.72H67.2336V40.92L71.4576 36.096H75.1056L70.2336 41.52L75.8976 48H72.0576L67.2336 42.024V48H64.1616ZM83.5929 48V31.2H89.3289C91.2969 31.2 92.9129 31.552 94.1769 32.256C95.4569 32.944 96.4009 33.92 97.0089 35.184C97.6329 36.432 97.9449 37.904 97.9449 39.6C97.9449 41.296 97.6329 42.776 97.0089 44.04C96.4009 45.288 95.4569 46.264 94.1769 46.968C92.9129 47.656 91.2969 48 89.3289 48H83.5929ZM86.6649 45.36H89.1849C90.5929 45.36 91.7049 45.136 92.5209 44.688C93.3369 44.224 93.9209 43.568 94.2729 42.72C94.6249 41.856 94.8009 40.816 94.8009 39.6C94.8009 38.4 94.6249 37.368 94.2729 36.504C93.9209 35.64 93.3369 34.976 92.5209 34.512C91.7049 34.048 90.5929 33.816 89.1849 33.816H86.6649V45.36ZM106.295 48.288C105.143 48.288 104.103 48.024 103.175 47.496C102.263 46.968 101.535 46.24 100.991 45.312C100.463 44.368 100.199 43.28 100.199 42.048C100.199 40.816 100.471 39.736 101.015 38.808C101.559 37.864 102.287 37.128 103.199 36.6C104.127 36.072 105.167 35.808 106.319 35.808C107.455 35.808 108.479 36.072 109.391 36.6C110.319 37.128 111.047 37.864 111.575 38.808C112.119 39.736 112.391 40.816 112.391 42.048C112.391 43.28 112.119 44.368 111.575 45.312C111.047 46.24 110.319 46.968 109.391 47.496C108.463 48.024 107.431 48.288 106.295 48.288ZM106.295 45.624C107.095 45.624 107.791 45.328 108.383 44.736C108.975 44.128 109.271 43.232 109.271 42.048C109.271 40.864 108.975 39.976 108.383 39.384C107.791 38.776 107.103 38.472 106.319 38.472C105.503 38.472 104.799 38.776 104.207 39.384C103.631 39.976 103.343 40.864 103.343 42.048C103.343 43.232 103.631 44.128 104.207 44.736C104.799 45.328 105.495 45.624 106.295 45.624ZM115.138 48V36.096H117.85L118.09 38.112C118.458 37.408 118.986 36.848 119.674 36.432C120.378 36.016 121.202 35.808 122.146 35.808C123.618 35.808 124.762 36.272 125.578 37.2C126.394 38.128 126.802 39.488 126.802 41.28V48H123.73V41.568C123.73 40.544 123.522 39.76 123.106 39.216C122.69 38.672 122.042 38.4 121.162 38.4C120.298 38.4 119.586 38.704 119.026 39.312C118.482 39.92 118.21 40.768 118.21 41.856V48H115.138ZM135.524 48.288C134.324 48.288 133.26 48.032 132.332 47.52C131.404 47.008 130.676 46.288 130.148 45.36C129.62 44.432 129.356 43.36 129.356 42.144C129.356 40.912 129.612 39.816 130.124 38.856C130.652 37.896 131.372 37.152 132.284 36.624C133.212 36.08 134.3 35.808 135.548 35.808C136.716 35.808 137.748 36.064 138.644 36.576C139.54 37.088 140.236 37.792 140.732 38.688C141.244 39.568 141.5 40.552 141.5 41.64C141.5 41.816 141.492 42 141.476 42.192C141.476 42.384 141.468 42.584 141.452 42.792H132.404C132.468 43.72 132.788 44.448 133.364 44.976C133.956 45.504 134.668 45.768 135.5 45.768C136.124 45.768 136.644 45.632 137.06 45.36C137.492 45.072 137.812 44.704 138.02 44.256H141.14C140.916 45.008 140.54 45.696 140.012 46.32C139.5 46.928 138.86 47.408 138.092 47.76C137.34 48.112 136.484 48.288 135.524 48.288ZM135.548 38.304C134.796 38.304 134.132 38.52 133.556 38.952C132.98 39.368 132.612 40.008 132.452 40.872H138.38C138.332 40.088 138.044 39.464 137.516 39C136.988 38.536 136.332 38.304 135.548 38.304Z" fill="#005555"/>
<path d="M582.278 47V34.4H586.364C587.84 34.4 589.052 34.658 590 35.174C590.96 35.69 591.668 36.422 592.124 37.37C592.592 38.306 592.826 39.422 592.826 40.718C592.826 42.002 592.592 43.118 592.124 44.066C591.668 45.002 590.96 45.728 590 46.244C589.052 46.748 587.84 47 586.364 47H582.278ZM584.186 45.38H586.292C587.432 45.38 588.332 45.194 588.992 44.822C589.664 44.45 590.144 43.916 590.432 43.22C590.732 42.524 590.882 41.69 590.882 40.718C590.882 39.746 590.732 38.906 590.432 38.198C590.144 37.49 589.664 36.95 588.992 36.578C588.332 36.194 587.432 36.002 586.292 36.002H584.186V45.38ZM597.886 47.216C597.13 47.216 596.506 47.09 596.014 46.838C595.522 46.586 595.156 46.256 594.916 45.848C594.676 45.428 594.556 44.972 594.556 44.48C594.556 43.616 594.892 42.932 595.564 42.428C596.236 41.924 597.196 41.672 598.444 41.672H600.784V41.51C600.784 40.814 600.592 40.292 600.208 39.944C599.836 39.596 599.35 39.422 598.75 39.422C598.222 39.422 597.76 39.554 597.364 39.818C596.98 40.07 596.746 40.448 596.662 40.952H594.754C594.814 40.304 595.03 39.752 595.402 39.296C595.786 38.828 596.266 38.474 596.842 38.234C597.43 37.982 598.072 37.856 598.768 37.856C600.016 37.856 600.982 38.186 601.666 38.846C602.35 39.494 602.692 40.382 602.692 41.51V47H601.036L600.874 45.47C600.622 45.962 600.256 46.376 599.776 46.712C599.296 47.048 598.666 47.216 597.886 47.216ZM598.264 45.668C598.78 45.668 599.212 45.548 599.56 45.308C599.92 45.056 600.196 44.726 600.388 44.318C600.592 43.91 600.718 43.46 600.766 42.968H598.642C597.886 42.968 597.346 43.1 597.022 43.364C596.71 43.628 596.554 43.958 596.554 44.354C596.554 44.762 596.704 45.086 597.004 45.326C597.316 45.554 597.736 45.668 598.264 45.668ZM605.997 36.38C605.637 36.38 605.337 36.272 605.097 36.056C604.869 35.828 604.755 35.546 604.755 35.21C604.755 34.874 604.869 34.598 605.097 34.382C605.337 34.154 605.637 34.04 605.997 34.04C606.357 34.04 606.651 34.154 606.879 34.382C607.119 34.598 607.239 34.874 607.239 35.21C607.239 35.546 607.119 35.828 606.879 36.056C606.651 36.272 606.357 36.38 605.997 36.38ZM605.043 47V38.072H606.951V47H605.043ZM609.47 47V34.04H611.378V47H609.47ZM614.838 50.96L616.98 46.262H616.458L612.93 38.072H615L617.736 44.678L620.598 38.072H622.614L616.854 50.96H614.838Z" fill="#005555"/>
<path d="M666.852 47.018L663.45 34.4H665.502L668.004 44.84L670.884 34.4H672.99L675.78 44.84L678.282 34.4H680.334L676.878 47H674.646L671.892 37.118L669.048 47L666.852 47.018ZM685.257 47.216C684.381 47.216 683.601 47.024 682.917 46.64C682.245 46.244 681.717 45.698 681.333 45.002C680.949 44.306 680.757 43.496 680.757 42.572C680.757 41.636 680.943 40.814 681.315 40.106C681.699 39.398 682.227 38.846 682.899 38.45C683.583 38.054 684.375 37.856 685.275 37.856C686.151 37.856 686.913 38.054 687.561 38.45C688.209 38.834 688.713 39.35 689.073 39.998C689.433 40.646 689.613 41.36 689.613 42.14C689.613 42.26 689.607 42.392 689.595 42.536C689.595 42.668 689.589 42.818 689.577 42.986H682.629C682.689 43.85 682.971 44.51 683.475 44.966C683.991 45.41 684.585 45.632 685.257 45.632C685.797 45.632 686.247 45.512 686.607 45.272C686.979 45.02 687.255 44.684 687.435 44.264H689.343C689.103 45.104 688.623 45.806 687.903 46.37C687.195 46.934 686.313 47.216 685.257 47.216ZM685.257 39.422C684.621 39.422 684.057 39.614 683.565 39.998C683.073 40.37 682.773 40.934 682.665 41.69H687.705C687.669 40.994 687.423 40.442 686.967 40.034C686.511 39.626 685.941 39.422 685.257 39.422ZM695.769 47.216C694.893 47.216 694.113 47.024 693.429 46.64C692.757 46.244 692.229 45.698 691.845 45.002C691.461 44.306 691.269 43.496 691.269 42.572C691.269 41.636 691.455 40.814 691.827 40.106C692.211 39.398 692.739 38.846 693.411 38.45C694.095 38.054 694.887 37.856 695.787 37.856C696.663 37.856 697.425 38.054 698.073 38.45C698.721 38.834 699.225 39.35 699.585 39.998C699.945 40.646 700.125 41.36 700.125 42.14C700.125 42.26 700.119 42.392 700.107 42.536C700.107 42.668 700.101 42.818 700.089 42.986H693.141C693.201 43.85 693.483 44.51 693.987 44.966C694.503 45.41 695.097 45.632 695.769 45.632C696.309 45.632 696.759 45.512 697.119 45.272C697.491 45.02 697.767 44.684 697.947 44.264H699.855C699.615 45.104 699.135 45.806 698.415 46.37C697.707 46.934 696.825 47.216 695.769 47.216ZM695.769 39.422C695.133 39.422 694.569 39.614 694.077 39.998C693.585 40.37 693.285 40.934 693.177 41.69H698.217C698.181 40.994 697.935 40.442 697.479 40.034C697.023 39.626 696.453 39.422 695.769 39.422ZM702.104 47V34.04H704.012V41.762L707.432 38.072H709.718L705.92 42.122L710.276 47H707.864L704.012 42.428V47H702.104ZM711.755 47V34.04H713.663V47H711.755ZM717.123 50.96L719.265 46.262H718.743L715.215 38.072H717.285L720.021 44.678L722.883 38.072H724.899L719.139 50.96H717.123Z" fill="#005555"/>
<path d="M767.278 47V34.4H769.528L773.794 42.788L778.042 34.4H780.292V47H778.384V37.694L774.532 45.2H773.056L769.186 37.712V47H767.278ZM786.956 47.216C786.104 47.216 785.336 47.024 784.652 46.64C783.98 46.244 783.446 45.698 783.05 45.002C782.654 44.294 782.456 43.472 782.456 42.536C782.456 41.6 782.654 40.784 783.05 40.088C783.458 39.38 784.004 38.834 784.688 38.45C785.372 38.054 786.134 37.856 786.974 37.856C787.826 37.856 788.588 38.054 789.26 38.45C789.944 38.834 790.484 39.38 790.88 40.088C791.288 40.784 791.492 41.6 791.492 42.536C791.492 43.472 791.288 44.294 790.88 45.002C790.484 45.698 789.944 46.244 789.26 46.64C788.576 47.024 787.808 47.216 786.956 47.216ZM786.956 45.578C787.412 45.578 787.832 45.464 788.216 45.236C788.612 45.008 788.93 44.672 789.17 44.228C789.41 43.772 789.53 43.208 789.53 42.536C789.53 41.864 789.41 41.306 789.17 40.862C788.942 40.406 788.63 40.064 788.234 39.836C787.85 39.608 787.43 39.494 786.974 39.494C786.518 39.494 786.092 39.608 785.696 39.836C785.312 40.064 785 40.406 784.76 40.862C784.52 41.306 784.4 41.864 784.4 42.536C784.4 43.208 784.52 43.772 784.76 44.228C785 44.672 785.312 45.008 785.696 45.236C786.08 45.464 786.5 45.578 786.956 45.578ZM793.556 47V38.072H795.248L795.392 39.638C795.668 39.086 796.07 38.654 796.598 38.342C797.138 38.018 797.756 37.856 798.452 37.856C799.532 37.856 800.378 38.192 800.99 38.864C801.614 39.536 801.926 40.538 801.926 41.87V47H800.036V42.068C800.036 40.34 799.328 39.476 797.912 39.476C797.204 39.476 796.616 39.728 796.148 40.232C795.692 40.736 795.464 41.456 795.464 42.392V47H793.556ZM807.917 47C807.041 47 806.345 46.79 805.829 46.37C805.313 45.938 805.055 45.176 805.055 44.084V39.674H803.525V38.072H805.055L805.289 35.804H806.963V38.072H809.483V39.674H806.963V44.084C806.963 44.576 807.065 44.918 807.269 45.11C807.485 45.29 807.851 45.38 808.367 45.38H809.393V47H807.917ZM811.45 47V34.04H813.358V39.512C813.658 38.996 814.072 38.594 814.6 38.306C815.14 38.006 815.734 37.856 816.382 37.856C817.45 37.856 818.29 38.192 818.902 38.864C819.514 39.536 819.82 40.538 819.82 41.87V47H817.93V42.068C817.93 40.34 817.24 39.476 815.86 39.476C815.14 39.476 814.54 39.728 814.06 40.232C813.592 40.736 813.358 41.456 813.358 42.392V47H811.45ZM822.067 47V34.04H823.975V47H822.067ZM827.436 50.96L829.578 46.262H829.056L825.528 38.072H827.598L830.334 44.678L833.196 38.072H835.212L829.452 50.96H827.436Z" fill="#F8B400"/>
<rect x="767" y="61" width="67" height="2" fill="#F8B400"/>
</svg>
